<?xml version="1.0" standalone="no"?><!DOCTYPE svg PUBLIC "-//W3C//DTD SVG 1.1//EN" "http://www.w3.org/Graphics/SVG/1.1/DTD/svg11.dtd"><svg t="1495331969893" class="icon" style="" viewBox="0 0 1024 1024" version="1.1" xmlns="http://www.w3.org/2000/svg" p-id="4135" xmlns:xlink="http://www.w3.org/1999/xlink" width="48" height="48"><defs><style type="text/css"></style></defs>
<path d="M783.22782 958.823582H238.857575c-49.275263 0-126.493949-62.23953-126.49395-127.060861V315.040163c0-54.561663 55.56962-127.058814 114.976638-127.058814l54.153364-2.329045v120.828926H740.590743V185.653327l44.775786 2.329045c59.374272 0 124.352169 55.190997 124.35217 127.499859v520.182356c0 75.077929-67.083861 123.158994-126.490879 123.158995z m-42.636053-513.387604c0-9.943466-6.765077-18.124799-15.072277-18.124799H296.565904c-8.3072 0-15.071254 8.181333-15.071253 18.124799v36.248576c0 10.005888 6.764054 18.062378 15.071253 18.062378h428.954609c8.306176 0 15.072277-8.05649 15.072277-18.062378v-36.248576h-0.001023z m0 169.084977c0-10.005888-6.765077-18.123776-15.072277-18.123776H296.565904c-8.3072 0-15.071254 8.117888-15.071253 18.123776v36.186154c0 10.131755 6.764054 18.186198 15.071253 18.186197h428.954609c8.306176 0 15.072277-8.054443 15.072277-18.186197v-36.186154h-0.001023z m0 144.996348c0-10.006911-6.765077-18.124799-15.072277-18.124799H296.565904c-8.3072 0-15.071254 8.117888-15.071253 18.124799v36.247552c0 10.006911 6.764054 18.124799 15.071253 18.1248h428.954609c8.306176 0 15.072277-8.117888 15.072277-18.1248v-36.247552h-0.001023zM498.956428 258.150478H353.960079V137.321552h72.497151c0-33.982976 19.761066-72.498174 53.55473-72.498174h61.272505c33.827433 0 54.341652 38.514175 54.341652 72.498174h72.498175v120.829949H498.956428v-0.001023z m11.710716-141.407614c-21.215184 0-38.332027 17.305131-38.332027 38.576597 0 21.208021 17.116843 38.45073 38.332027 38.450731 21.147646 0 38.265512-17.242709 38.265512-38.450731 0-21.271466-17.117866-38.576597-38.265512-38.576597z" fill="#F6854E" p-id="4136"></path>
<path d="M800 800m-224 0a224 224 0 1 0 448 0 224 224 0 1 0-448 0Z" fill="#3AAD73" p-id="4109"></path>
<path d="M896 767.968h-64v-64a32 32 0 1 0-64 0v64h-64a32 32 0 1 0 0 64h64v64a32 32 0 1 0 64 0v-64h64a32 32 0 1 0 0-64z" fill="#FFFFFF" p-id="4110" class="selected"></path>
</svg>