<?xml version="1.0" standalone="no"?><!DOCTYPE svg PUBLIC "-//W3C//DTD SVG 1.1//EN" "http://www.w3.org/Graphics/SVG/1.1/DTD/svg11.dtd"><svg t="1488421255073" class="icon" style="" viewBox="0 0 1024 1024" version="1.1" xmlns="http://www.w3.org/2000/svg" p-id="4215" xmlns:xlink="http://www.w3.org/1999/xlink" width="200" height="200"><defs><style type="text/css"></style></defs><path d="M499.202008 0.160615C294.434131 6.559611 121.661234 166.534515 102.464246 364.903396c-6.398996 38.393977 0 76.787954 6.398996 115.181931v12.797992c12.797992 31.994981 19.196988 57.590965 31.994981 83.18695 44.792973 95.984942 140.777915 268.757839 364.742781 447.929731H512c223.964866-179.171892 326.348804-345.545793 364.742781-447.929731 12.797992-25.595985 19.196988-51.191969 25.595985-83.18695v-12.797992c6.398996-25.595985 6.398996-51.191969 6.398996-76.787954 12.797992-223.964866-179.171892-409.535754-409.535754-403.136758z m-25.595985 537.515677v63.989962h-51.191969v-63.989962h51.191969z m-51.191969-31.994981v-63.989961h51.191969v63.989961h-51.191969zM448.010038 640.060231v63.989961H364.823088v-63.989961H448.010038z m-51.191969-134.37892h-57.590965v-63.989961h51.191969l6.398996 63.989961z m0 31.994981v63.989962h-57.590965v-63.989962h57.590965z m268.757839-198.368881v63.989962h-57.590966v-63.989962h57.590966z m-57.590966-31.994981v-63.989961h51.19197v63.989961h-51.19197z m57.590966 127.979924v63.989961h-57.590966v-63.989961h57.590966z m0 102.383938v63.989962h-57.590966v-63.989962h57.590966zM633.580927 640.060231v63.989961H556.792973v-63.989961h76.787954z m-51.191969-332.747801h-51.19197v-63.989961h51.19197v63.989961z m0 31.994981v63.989962h-51.19197v-63.989962h51.19197z m0 95.984943v63.989961h-51.19197v-63.989961h51.19197z m0 102.383938v63.989962h-51.19197v-63.989962h51.19197zM767.959846 633.661234c-6.398996-12.797992-31.994981 38.393977-57.590965 70.388958h-25.595985V204.928492H499.202008v198.368881H313.631119V704.050192h-6.398996c-19.196988-31.994981-44.792973-76.787954-51.191969-70.388958-51.191969-57.590965-83.18695-134.378919-83.18695-223.964865 0-185.570889 153.575908-339.146796 339.146796-339.146796s339.146796 153.575908 339.146796 339.146796c0 89.585946-31.994981 166.3739-83.18695 223.964865z" fill="#5D5D5D" p-id="4216"></path></svg>