<?xml version="1.0" standalone="no"?><!DOCTYPE svg PUBLIC "-//W3C//DTD SVG 1.1//EN" "http://www.w3.org/Graphics/SVG/1.1/DTD/svg11.dtd"><svg t="1495082123209" class="icon" style="" viewBox="0 0 1024 1024" version="1.1" xmlns="http://www.w3.org/2000/svg" p-id="5330" xmlns:xlink="http://www.w3.org/1999/xlink" width="48" height="48"><defs><style type="text/css"></style></defs><path d="M501.106615 196.102721c-120.306547 0-217.867705 97.561158-217.867705 217.867705 0 91.090487 181.636306 370.571179 217.867705 370.375098 35.664943 0.196081 217.867705-280.50467 217.867705-370.375098C718.97432 293.663879 621.413161 196.102721 501.106615 196.102721zM501.106615 522.904279c-60.153273 0-108.933852-48.780579-108.933852-108.933852 0-60.17506 48.758792-108.933852 108.933852-108.933852 60.17506 0 108.933852 48.758792 108.933852 108.933852C610.040467 474.123699 561.281675 522.904279 501.106615 522.904279zM501.106615 348.610115c-36.100679 0-65.360311 29.259633-65.360311 65.360311s29.259633 65.360311 65.360311 65.360311 65.360311-29.259633 65.360311-65.360311S537.185507 348.610115 501.106615 348.610115zM893.268484 0 130.731516 0c-72.179571 0-130.720623 58.541052-130.720623 130.720623l0 762.536967C0.010893 965.458948 58.530159 1024 130.731516 1024l762.536967 0c72.179571 0 130.720623-58.541052 130.720623-130.74241l0-762.536967C1023.989107 58.541052 965.448054 0 893.268484 0zM501.106615 849.705836c-43.464607 0.217868-261.441246-326.409396-261.441246-435.73541 0-144.402715 117.060318-261.441246 261.441246-261.441246 144.380928 0 261.441246 117.038531 261.441246 261.441246C762.547861 521.81494 543.874045 849.923704 501.106615 849.705836z" p-id="5331" fill="#8E8E93"></path></svg>