<?xml version="1.0" standalone="no"?>
<!DOCTYPE svg PUBLIC "-//W3C//DTD SVG 1.1//EN" "http://www.w3.org/Graphics/SVG/1.1/DTD/svg11.dtd">
<svg t="1488421280486" class="icon" style="color:#1296db" viewBox="0 0 1024 1024" version="1.1" xmlns="http://www.w3.org/2000/svg" p-id="4341" xmlns:xlink="http://www.w3.org/1999/xlink" width="200" height="200"><defs><style type="text/css"></style></defs>
<g fill="#1296db">
<path d="M954.634909 308.150354C945.810197 138.194269 820.037216 0 654.011165 0 507.50428 0 392.830666 107.659099 361.438035 249.711946L73.056941 538.093041 69.055452 540.879792V1024h626.721251V952.735393l-0.500186-178.1377-29.272795 24.6163-33.738742-21.639002L632.515073 952.735393H502.252326V739.858578H268.534425V952.735393H132.328991V592.482322h319.27354c71.026424 111.684406 163.024935 201.944176 214.4131 206.731671 31.106811 2.917752 299.20655-287.213993 288.619278-491.063639zM327.88984 799.213993h114.995162V952.735393h-114.995162V799.213993zM190.719762 521.217715l164.847041-164.847041c6.740603 52.376628 27.236323 109.481206 55.29438 164.847041H190.719762z m473.36658 213.984369c-78.767399-7.336063-271.291403-253.630071-262.538147-412.403424 7.871976-142.707853 113.042054-258.786751 252.474879-258.786751 139.420916 0 245.055452 116.05508 252.46297 258.786751 8.872348 171.194641-216.270934 414.844808-242.399702 412.403424z" p-id="4342"></path>
<path d="M662.288054 190.547079c-67.001116 0-121.330852 54.317827-121.330853 121.330852s54.329736 121.330852 121.330853 121.330852S783.606997 378.879047 783.606997 311.877931 729.277261 190.547079 662.288054 190.547079z m0 181.615184a60.296241 60.296241 0 1 1 0-120.604392 60.296241 60.296241 0 0 1 0 120.604392z" p-id="4343"></path>
</g>
</svg>