<?xml version="1.0" standalone="no"?><!DOCTYPE svg PUBLIC "-//W3C//DTD SVG 1.1//EN" "http://www.w3.org/Graphics/SVG/1.1/DTD/svg11.dtd">
<svg t="1488432047115" class="icon" style="" viewBox="0 0 1024 1024" version="1.1" xmlns="http://www.w3.org/2000/svg" p-id="4010" xmlns:xlink="http://www.w3.org/1999/xlink" width="200" height="200"><defs><style type="text/css"></style></defs><path d="M187.532549 0 707.764706 0C708.367059 16.263529 709.170196 48.991373 709.571765 65.254902 527.661176 64.652549 345.549804 66.660392 163.438431 64.050196 146.572549 87.140392 122.478431 109.025882 126.694902 140.54902 126.694902 379.281569 125.289412 618.214902 127.698824 857.148235 141.151373 869.797647 154.603922 882.647843 168.056471 895.297255 400.564706 896.301176 632.872157 896.100392 865.179608 895.698824 895.297255 899.513725 917.785098 878.832941 940.875294 863.372549 938.064314 702.745098 941.076078 541.916863 938.867451 381.289412 937.060392 348.360784 941.276863 315.030588 962.158431 288.326275 972.599216 295.152941 993.480784 309.007059 1003.921569 315.833725L1003.921569 829.841569C994.283922 896.903529 936.658824 960.150588 865.179608 954.930196 643.513725 955.331765 421.847843 955.532549 200.181961 954.930196 131.312941 957.941961 64.652549 894.293333 69.872941 824.420392 69.270588 596.530196 69.471373 368.64 69.872941 140.749804 61.841569 68.86902 124.687059 17.66902 187.532549 0Z" p-id="4011" fill="#0894ec"></path><path d="M833.054118 28.912941C891.482353-30.920784 992.878431 28.310588 999.905882 101.998431 1009.744314 150.387451 970.591373 186.327843 940.67451 217.85098 826.227451 337.719216 706.56 452.166275 592.715294 572.436078 540.511373 631.065098 455.579608 654.356078 380.084706 652.950588 373.458824 645.923137 359.80549 631.667451 352.978824 624.439216 381.69098 556.172549 382.293333 472.646275 442.528627 421.24549 573.841569 291.538824 699.13098 155.808627 833.054118 28.912941M819.400784 119.065098C843.294118 142.757647 867.187451 166.450196 890.88 190.343529 913.367843 164.643137 951.516863 141.95451 940.67451 102.199216 938.465882 70.27451 906.139608 67.061961 882.447059 58.026667 861.364706 78.305882 840.483137 98.986667 819.400784 119.065098M501.559216 440.520784C525.452549 464.414118 549.345882 488.106667 573.038431 512.200784 665.399216 417.430588 758.161569 323.262745 852.73098 230.500392 829.239216 206.607059 805.546667 182.91451 782.054902 159.021176 685.076078 249.374118 597.132549 348.762353 501.559216 440.520784M458.591373 478.870588C443.934118 516.015686 428.473725 553.963922 427.26902 594.522353 465.819608 584.081569 504.57098 572.235294 538.302745 549.948235 512 526.054902 485.496471 502.362353 458.591373 478.870588Z" p-id="4012" fill="#0894ec"></path></svg>