<?xml version="1.0" standalone="no"?><!DOCTYPE svg PUBLIC "-//W3C//DTD SVG 1.1//EN" "http://www.w3.org/Graphics/SVG/1.1/DTD/svg11.dtd"><svg t="1489053884421" class="icon" style="" viewBox="0 0 1024 1024" version="1.1" xmlns="http://www.w3.org/2000/svg" p-id="3089" xmlns:xlink="http://www.w3.org/1999/xlink" width="48" height="48"><defs><style type="text/css"></style></defs><path d="M1020.501042 700.901075 1020.501042 177.849487c0-96.264022-78.086507-174.350529-174.350529-174.350529L177.849487 3.498958c-96.264022 0-174.350529 78.086507-174.350529 174.350529l0 668.301025c0 96.264022 78.086507 174.350529 174.350529 174.350529l668.301025 0c92.423702 0 168.035336-71.941995 173.923827-162.91491L625.289441 683.406284c0 0-125.279773 174.350529-319.599967 174.350529S73.222102 742.03517 73.222102 671.799983s46.08384-174.350529 215.057921-174.350529 295.619302 63.749312 296.387366 63.919993c52.569714-90.972914 58.116843-133.643137 58.116843-133.643137l-395.126261 0L247.657971 381.215768l197.56313 0L445.221102 311.492624l-244.073673 0L201.147429 264.982082l244.073673 0L445.221102 177.849487c0-27.138262 17.409451-29.101092 17.409451-29.101092l98.824235 0 0 116.233686 255.679973 0L817.134761 311.492624 561.369447 311.492624l0 69.723144c0 0 208.913409-0.170681 209.169431 0-15.787982 103.261938-81.329444 209.169431-81.329444 209.169431L1020.501042 700.901075zM119.732644 677.603134c0 0 0.597383 110.430536 162.744229 110.430536 156.429036 0 255.679973-145.249437 255.679973-145.249437S425.76348 567.172598 253.375781 567.172598C117.769814 567.172598 119.732644 677.603134 119.732644 677.603134z" p-id="3090" fill="#8e8e93"></path></svg>