<?xml version="1.0" standalone="no"?><!DOCTYPE svg PUBLIC "-//W3C//DTD SVG 1.1//EN" "http://www.w3.org/Graphics/SVG/1.1/DTD/svg11.dtd"><svg t="1489054444594" class="icon" style="" viewBox="0 0 1024 1024" version="1.1" xmlns="http://www.w3.org/2000/svg" p-id="4353" xmlns:xlink="http://www.w3.org/1999/xlink" width="58" height="58"><defs><style type="text/css"></style></defs><path d="M62.389444 370.69267v-103.381555c0-42.22673 34.122145-76.461439 76.195379-76.461439h746.800678c42.098817 0 76.224032 34.234709 76.224032 76.461439v103.381555h-899.220089z m899.220089 77.07747v308.918745c0 42.22673-34.126238 76.461439-76.224032 76.461439h-746.800678c-42.073234 0-76.19538-34.234709-76.195379-76.461439v-308.918745h899.220089z m-122.891912 278.320866h31.438013c8.404414 0 15.229866-6.836709 15.229867-15.280008 0-8.455579-6.825452-15.304568-15.229867-15.304567h-31.438013c-8.428973 0-15.252379 6.848988-15.252378 15.304567 0 8.443299 6.823406 15.280008 15.252378 15.280008z m-192.089923 0h118.05065c8.403391 0 15.226796-6.836709 15.226796-15.280008 0-8.455579-6.823406-15.304568-15.226796-15.304567h-118.05065c-8.429996 0-15.252379 6.848988-15.252378 15.304567 0 8.443299 6.822382 15.280008 15.252378 15.280008z m-142.259004 0h68.246337c8.403391 0 15.204283-6.836709 15.204284-15.280008 0-8.455579-6.800893-15.304568-15.204284-15.304567h-68.246337c-8.428973 0-15.252379 6.848988-15.252379 15.304567 0 8.443299 6.823406 15.280008 15.252379 15.280008z" fill="#8e8e93" p-id="4354"></path></svg>