<?xml version="1.0" standalone="no"?><!DOCTYPE svg PUBLIC "-//W3C//DTD SVG 1.1//EN" "http://www.w3.org/Graphics/SVG/1.1/DTD/svg11.dtd"><svg t="1489056093616" class="icon" style="" viewBox="0 0 1281 1024" version="1.1" xmlns="http://www.w3.org/2000/svg" p-id="7475" xmlns:xlink="http://www.w3.org/1999/xlink" width="60.046875" height="48"><defs><style type="text/css"></style></defs><path d="M287.353531 198.230193C255.622692 198.230193 229.933385 224.124299 229.933385 256.008736 229.933385 287.957172 255.673892 313.800079 287.353531 313.800079 319.09717 313.800079 344.773678 287.905973 344.773678 256.008736 344.773678 224.124299 319.045971 198.230193 287.353531 198.230193L287.353531 198.230193ZM1280.123039 644.125921C1218.47894 358.586769 929.20223 348.513284 902.668132 346.823703 884.773936 104.637658 614.133814-2.292326 459.613972 0.037248 184.417102 14.565082-6.13433 176.457641 0.150398 379.911327 6.460727 583.313813 180.653945 693.661358 180.653945 693.661358 180.653945 693.661358 152.827062 802.639318 147.822319 825.794255 147.822319 825.794255 239.558875 772.380462 279.123225 743.209594 341.266518 761.321388 450.846072 760.131002 541.686638 759.734206 645.762254 949.044053 828.492976 955.354381 869.887705 957.927152 911.295234 960.499922 1004.567773 950.234439 1034.020238 941.415339 1034.020238 941.415339 1120.444855 1015.961691 1148.911731 1023.9872 1148.911731 1023.9872 1134.230298 942.157731 1116.092904 891.867103 1145.839766 893.403086 1287.508555 776.591614 1280.123039 644.125921L1280.123039 644.125921ZM746.817105 578.053073C724.161363 578.053073 705.819171 559.557283 705.819171 536.786342 705.819171 513.977002 724.161363 495.519611 746.817105 495.519611 769.485647 495.519611 787.827838 514.028201 787.827838 536.786342 787.827838 559.608482 769.485647 578.053073 746.817105 578.053073L746.817105 578.053073ZM508.855012 644.125921C508.803812 662.314514 508.855012 693.661358 508.855012 693.661358 490.013626 695.901332 352.415191 693.917355 311.954852 660.637733 283.641574 662.071317 279.123225 660.637733 279.123225 660.637733L246.304398 677.149545 246.304398 644.125921C211.987989 632.862049 85.691825 533.41998 82.171865 396.371939 78.651905 259.387897 201.773705 82.865105 459.613972 82.621908 717.415839 82.365911 795.661349 244.808863 820.659465 346.874902 786.291856 350.394862 518.275705 409.862986 508.855012 644.125921L508.855012 644.125921ZM992.971105 578.053073C970.302563 578.053073 951.960371 559.557283 951.960371 536.786342 951.960371 513.977002 970.302563 495.519611 992.971105 495.519611 1015.626847 495.519611 1033.969039 514.028201 1033.969039 536.786342 1033.969039 559.608482 1015.626847 578.053073 992.971105 578.053073L992.971105 578.053073ZM615.516199 198.230193C583.785359 198.230193 558.096052 224.124299 558.096052 256.008736 558.096052 287.957172 583.836559 313.800079 615.516199 313.800079 647.247038 313.800079 672.936345 287.905973 672.936345 256.008736 672.987545 224.124299 647.247038 198.230193 615.516199 198.230193L615.516199 198.230193Z" p-id="7476" fill="#8e8e93"></path></svg>