<?xml version="1.0" standalone="no"?><!DOCTYPE svg PUBLIC "-//W3C//DTD SVG 1.1//EN" "http://www.w3.org/Graphics/SVG/1.1/DTD/svg11.dtd"><svg t="1490438502959" class="icon" style="" viewBox="0 0 1024 1024" version="1.1" xmlns="http://www.w3.org/2000/svg" p-id="13619" xmlns:xlink="http://www.w3.org/1999/xlink" width="48" height="48"><defs><style type="text/css"></style></defs><path d="M659.955064 247.691303 612.072743 205.285584 612.072743 170.690107C612.072743 144.717008 590.863752 123.586207 564.794545 123.586207L467.958646 123.586208C441.889439 123.586208 420.680448 144.717009 420.680448 170.690109L420.680448 205.285586 372.797276 247.691305C335.533063 272.572513 317.793103 291.962054 317.793103 333.497141L317.793103 827.949911C317.793103 874.879177 343.478565 905.203733 383.228194 905.203733L649.524999 905.203733C689.275479 905.203733 714.960087 874.879177 714.960087 827.949911L714.960087 333.497987C714.960087 291.962899 697.219275 272.572511 659.955064 247.691303L659.955064 247.691303ZM467.958646 157.495862 564.794545 157.495862C572.096782 157.495862 578.037613 163.414792 578.037613 170.690108L578.037613 193.401946 454.714726 193.401948 454.714726 170.690109C454.714726 163.414792 460.655558 157.495862 467.958646 157.495862L467.958646 157.495862ZM392.666984 275.246288 393.6506 274.593527 447.039806 227.3116 585.713387 227.3116 639.102591 274.593527 640.085356 275.246288C673.673774 297.554601 680.92496 307.898742 680.92496 333.497139L680.92496 362.895113 351.827382 362.895113 351.827382 333.497139C351.827382 307.898742 359.079417 297.555449 392.666984 275.246288L392.666984 275.246288ZM680.924958 396.805616 680.924958 531.076825 351.827382 531.076825 351.827382 396.805616 680.924958 396.805616 680.924958 396.805616ZM672.481693 860.647295C667.278573 867.811558 659.769572 871.294079 649.524999 871.294079L383.227341 871.294079C372.982768 871.294079 365.473767 867.811558 360.269796 860.647295 354.825876 853.151566 351.827382 841.540054 351.827382 827.949911L351.827382 564.986479 680.924958 564.986479 680.924958 827.949911C680.924958 841.540054 677.926464 853.153261 672.481693 860.647295L672.481693 860.647295Z" p-id="13620" fill="#0894ec"></path></svg>