<?xml version="1.0" standalone="no"?><!DOCTYPE svg PUBLIC "-//W3C//DTD SVG 1.1//EN" "http://www.w3.org/Graphics/SVG/1.1/DTD/svg11.dtd"><svg t="1490071378030" class="icon" style="" viewBox="0 0 1024 1024" version="1.1" xmlns="http://www.w3.org/2000/svg" p-id="3679" xmlns:xlink="http://www.w3.org/1999/xlink" width="48" height="48"><defs><style type="text/css"></style></defs><path d="M931.359159 913.126931H92.639818c-15.097845 0-27.349877-12.249986-27.349878-27.349878 0-15.098868 12.252033-27.349877 27.349878-27.349877h838.718318c15.097845 0 27.349877 12.25101 27.349877 27.349877s-12.252033 27.349877-27.348854 27.349878z m-82.048609-127.631738H739.913087c-20.138646 0-36.467527-16.327857-36.467527-36.46548v-601.690141c0-20.138646 16.328881-36.46548 36.467527-36.46548h109.397463c20.138646 0 36.467527 16.327857 36.467527 36.46548v601.690141c0 20.137623-16.328881 36.46548-36.467527 36.46548z m-291.729979 0H448.183108c-20.138646 0-36.463433-16.327857-36.463434-36.46548v-437.592923c0-20.138646 16.324787-36.46548 36.463434-36.46548h109.397463c20.138646 0 36.467527 16.327857 36.467526 36.46548v437.592923c0 20.137623-16.328881 36.46548-36.467526 36.46548z m-309.961185 0H138.2209c-20.138646 0-36.463433-16.327857-36.463433-36.46548v-328.194436c0-20.138646 16.324787-36.46548 36.463433-36.46548h109.397463c20.138646 0 36.467527 16.327857 36.467527 36.46548v328.194436c0 20.137623-16.328881 36.46548-36.466504 36.46548z" fill="#ff4400" p-id="3680"></path></svg>