<?xml version="1.0" standalone="no"?><!DOCTYPE svg PUBLIC "-//W3C//DTD SVG 1.1//EN" "http://www.w3.org/Graphics/SVG/1.1/DTD/svg11.dtd"><svg t="1488506478902" class="icon" style="" viewBox="0 0 1024 1024" version="1.1" xmlns="http://www.w3.org/2000/svg" p-id="2652" xmlns:xlink="http://www.w3.org/1999/xlink" width="200" height="200"><defs><style type="text/css"></style></defs><path d="M400 480h-32c-9.6 0-16 6.4-16 16v32c0 9.6 6.4 16 16 16h32c9.6 0 16-6.4 16-16v-32c0-9.6-6.4-16-16-16zM528 480h-32c-9.6 0-16 6.4-16 16v32c0 9.6 6.4 16 16 16h32c9.6 0 16-6.4 16-16v-32c0-9.6-6.4-16-16-16zM656 480h-32c-9.6 0-16 6.4-16 16v32c0 9.6 6.4 16 16 16h32c9.6 0 16-6.4 16-16v-32c0-9.6-6.4-16-16-16zM400 608h-32c-9.6 0-16 6.4-16 16v32c0 9.6 6.4 16 16 16h32c9.6 0 16-6.4 16-16v-32c0-9.6-6.4-16-16-16zM528 608h-32c-9.6 0-16 6.4-16 16v32c0 9.6 6.4 16 16 16h32c9.6 0 16-6.4 16-16v-32c0-9.6-6.4-16-16-16zM656 608h-32c-9.6 0-16 6.4-16 16v32c0 9.6 6.4 16 16 16h32c9.6 0 16-6.4 16-16v-32c0-9.6-6.4-16-16-16z" p-id="2653" fill="#8a8a8a"></path><path d="M640 0h-256c-211.2 0-384 172.8-384 384v256c0 211.2 172.8 384 384 384h256c211.2 0 384-172.8 384-384v-256c0-211.2-172.8-384-384-384zM640 288h32v64h-32v-64zM352 288h32v64h-32v-64zM768 640c0 54.4-41.6 96-96 96h-320c-54.4 0-96-41.6-96-96v-224c0-41.6 25.6-76.8 64-89.6v25.6c0 19.2 12.8 32 32 32h32c19.2 0 32-12.8 32-32v-32h192v32c0 19.2 12.8 32 32 32h32c19.2 0 32-12.8 32-32v-25.6c38.4 12.8 64 48 64 89.6v224z" p-id="2654" fill="#8a8a8a"></path></svg>