<?xml version="1.0" standalone="no"?><!DOCTYPE svg PUBLIC "-//W3C//DTD SVG 1.1//EN" "http://www.w3.org/Graphics/SVG/1.1/DTD/svg11.dtd"><svg t="1496843927809" class="icon" style="" viewBox="0 0 1024 1024" version="1.1" xmlns="http://www.w3.org/2000/svg" p-id="4195" xmlns:xlink="http://www.w3.org/1999/xlink" width="48" height="48"><defs><style type="text/css"></style></defs><path d="M767.925128 1024H255.982722a153.582722 153.582722 0 0 1-153.582722-153.582722V256.08639a153.582722 153.582722 0 0 1 153.582722-153.582722h102.388481S400.350481 4.210726 511.953925 0.115187c111.603445-4.095539 153.582722 102.388481 153.582722 102.388481h102.388481a153.582722 153.582722 0 0 1 153.582722 153.582722v614.330888a153.582722 153.582722 0 0 1-153.582722 153.582722zM632.311585 119.55135S599.752048 48.544939 513.182587 51.309428c-86.569461 2.713295-119.128998 68.241923-119.128998 68.241922S278.815353 120.677624 314.600127 256.08639h397.164919s33.173868-132.541889-79.453461-136.53504zM870.31361 256.08639a102.388481 102.388481 0 0 0-102.388482-102.388481h-13.822445c33.737005 60.716369 13.822445 153.582722 13.822445 153.582722H255.982722c-17.252459-75.81867-7.320776-123.531703 11.877064-153.582722H255.982722a102.388481 102.388481 0 0 0-102.388481 102.388481v614.330888a102.388481 102.388481 0 0 0 102.388481 102.388481h511.942406a102.388481 102.388481 0 0 0 102.388482-102.388481V256.08639zM307.176963 460.863353h409.553925v51.194241H307.176963V460.863353z m255.971203 307.165444H307.176963v-51.194241h255.971203v51.194241z" fill="#13227a" p-id="4196"></path></svg>