<?xml version="1.0" standalone="no"?><!DOCTYPE svg PUBLIC "-//W3C//DTD SVG 1.1//EN" "http://www.w3.org/Graphics/SVG/1.1/DTD/svg11.dtd"><svg t="1490080249743" class="icon" style="" viewBox="0 0 1024 1024" version="1.1" xmlns="http://www.w3.org/2000/svg" p-id="3532" xmlns:xlink="http://www.w3.org/1999/xlink" width="128" height="128"><defs><style type="text/css"></style></defs><path d="M966.572056 349.278965l-130.992403-226.191602c-8.544607-14.734586-27.551496-25.841551-44.219107-25.841551L239.057631 97.245811c-16.668635 0-35.674501 11.106965-44.203758 25.841551l-130.993426 226.191602c-2.788509 4.826935-5.411243 9.399067-7.374968 12.876262-0.974188 1.739621-1.753947 3.163039-2.294252 4.152577-1.228991 2.278903-4.960988 9.218966-0.674359 16.998139l4.436032 8.004301 1.813299 0c2.083451 2.608407 4.886287 6.175653 8.289804 10.538007l422.658206 542.005384c2.623757 3.387144 5.757121 6.144954 9.18929 8.243755l4.166903 2.128477c3.628644 1.528819 7.510044 2.338255 11.467169 2.338255s7.839549-0.809435 11.467169-2.338255l4.16588-2.128477c3.433192-2.083451 6.551206-4.856611 9.18929-8.243755l422.657182-542.005384C974.128149 387.577223 975.656969 364.988762 966.572056 349.278965L966.572056 349.278965zM936.789753 359.667569 719.681016 359.667569l94.178963-212.266451L936.789753 359.667569 936.789753 359.667569zM515.373841 140.235928l150.690024 219.431641L364.68484 359.667569 515.373841 140.235928 515.373841 140.235928zM337.869101 343.883071l-95.393627-215.008912 243.039315 0L337.869101 343.883071 337.869101 343.883071zM545.233915 128.873136l243.038292 0-95.392604 215.008912L545.233915 128.873136 545.233915 128.873136zM674.638147 391.30922 515.524267 898.913097 356.110557 391.30922 674.638147 391.30922 674.638147 391.30922zM216.753649 147.101289l94.314039 212.56628L93.644797 359.667569 216.753649 147.101289 216.753649 147.101289zM99.281167 391.30922l224.512357 0L475.187583 873.371374 99.281167 391.30922 99.281167 391.30922zM706.95518 391.30922l224.841861 0L555.815925 873.461425 706.95518 391.30922 706.95518 391.30922zM706.95518 391.30922" p-id="3533" fill="#d6d6d6"></path></svg>