<?xml version="1.0" standalone="no"?><!DOCTYPE svg PUBLIC "-//W3C//DTD SVG 1.1//EN" "http://www.w3.org/Graphics/SVG/1.1/DTD/svg11.dtd"><svg t="1490436154496" class="icon" style="" viewBox="0 0 1024 1024" version="1.1" xmlns="http://www.w3.org/2000/svg" p-id="3343" xmlns:xlink="http://www.w3.org/1999/xlink" width="48" height="48"><defs><style type="text/css"></style></defs><path d="M966.38 574.074c-15.107 33.344-46.191 53.386-82.8 53.386h-70.186v283.639a90.9 90.9 0 0 1-90.9 90.894H608.869V797.476a90.9 90.9 0 0 0-90.9-90.9h-11.357a90.9 90.9 0 0 0-90.9 90.9v204.517H302.09a90.894 90.894 0 0 1-90.9-90.894V627.46h-70.781c-36.606 0-67.69-20.042-82.8-53.386s-9.676-69.928 14.46-97.451L443.657 52.949c17.93-20.443 41.148-30.962 68.339-30.962s50.409 10.519 68.338 30.962l371.587 423.674c24.138 27.523 29.566 64.108 14.459 97.451z" fill="#1296db" p-id="3344"></path></svg>