<?xml version="1.0" standalone="no"?><!DOCTYPE svg PUBLIC "-//W3C//DTD SVG 1.1//EN" "http://www.w3.org/Graphics/SVG/1.1/DTD/svg11.dtd"><svg t="1488420545619" class="icon" style="" viewBox="0 0 1024 1024" version="1.1" xmlns="http://www.w3.org/2000/svg" p-id="2531" xmlns:xlink="http://www.w3.org/1999/xlink" width="200" height="200"><defs><style type="text/css"></style></defs><path d="M512.511626 414.157699c67.61023 0 122.125923-89.556275 122.125923-181.586047 0-85.673562-50.988169-143.366719-122.125923-143.366719-71.151859 0-122.14131 57.693157-122.14131 143.366719C390.374162 324.601425 444.887291 414.157699 512.511626 414.157699L512.511626 414.157699zM630.644561 379.826212c-29.631969 44.861485-71.492943 74.947377-118.131653 74.947377-46.652815 0-88.513789-30.085892-118.162427-74.947377-73.34454 33.058193-126.10737 90.093546-126.10737 131.014616 0 30.964247 29.537081 49.38405 81.349749 58.003466 36.989632 6.149765 80.499604 7.796199 162.920048 7.796199s125.91503-1.647716 162.905944-7.796199c51.812668-8.619416 81.349749-27.039219 81.349749-58.003466C756.766036 469.917193 704.00577 412.883123 630.644561 379.826212L630.644561 379.826212z" p-id="2532"></path><path d="M863.848372 351.847089C863.848372 546.171203 512 1024.001282 512 1024.001282S160.151628 546.171203 160.151628 351.847089C160.151628 157.528105 317.682298-0.001282 512-0.001282 706.324114-0.001282 863.848372 157.528105 863.848372 351.847089L863.848372 351.847089zM512.001282 31.825932c-175.46321 0-317.704096 142.240886-317.704096 317.701532s142.240886 317.704096 317.704096 317.704096c175.468339 0 317.701532-142.242169 317.701532-317.704096S687.468339 31.825932 512.001282 31.825932L512.001282 31.825932z" p-id="2533"></path></svg>