<?xml version="1.0" standalone="no"?><!DOCTYPE svg PUBLIC "-//W3C//DTD SVG 1.1//EN" "http://www.w3.org/Graphics/SVG/1.1/DTD/svg11.dtd"><svg t="1490065770310" class="icon" style="" viewBox="0 0 1024 1024" version="1.1" xmlns="http://www.w3.org/2000/svg" p-id="2944" xmlns:xlink="http://www.w3.org/1999/xlink" width="48" height="48"><defs><style type="text/css"></style></defs><path d="M64 684.163226C64 494.786173 156.294384 297.150602 338.271727 234.803747L685.728275 234.803747C867.717427 297.150602 960 494.786173 960 684.163226 960 912.765338 827.618246 1024 512.000656 1024 196.383068 1024 64 912.765338 64 684.163226ZM636.15563 648.358195 636.15563 648.281907C657.101178 648.175885 674.042918 631.406701 674.042918 610.75458 674.042918 590.080479 657.106432 573.331987 636.15563 573.201391L636.15563 573.109587 559.314161 573.109587C559.463763 572.266538 559.211802 571.519172 559.289228 570.67095L649.34551 479.961695C664.036659 463.658002 656.563136 450.1718 641.717139 435.388698 626.775341 420.528015 602.358769 417.411837 590.286962 430.362728L512.845775 511.696293 429.202678 429.276591C418.617702 418.85614 398.025159 422.255491 383.205405 436.852397 368.375153 451.475164 364.946124 471.779462 375.521914 482.199914L461.066527 566.472513C459.466839 568.488332 458.426189 570.72655 457.806785 573.109587L388.280052 573.109587 388.280052 573.180703 388.085832 573.180703C367.027425 573.180703 349.957084 589.984795 349.957084 610.749409 349.957084 631.477818 367.027425 648.316819 388.085832 648.316819 388.15276 648.316819 388.218374 648.281907 388.280052 648.281907L388.280052 648.358195 464.491619 648.358195 464.491619 685.77433 388.280052 685.77433 388.280052 685.88553 388.085832 685.88553C367.027425 685.88553 349.957084 702.689619 349.957084 723.454234 349.957084 744.182643 367.027425 761.021645 388.085832 761.021645 388.15276 761.021645 388.218374 760.981562 388.280052 760.981562L388.280052 761.021645 464.491619 761.021645 464.491619 798.847661 465.280308 798.847661C464.685839 801.777645 464.342017 804.843398 464.342017 807.980262 464.342017 833.915667 485.677319 854.937594 512.000656 854.937594 538.322681 854.937594 559.657983 833.915667 559.657983 807.980262 559.657983 804.843398 559.314161 801.777645 558.719692 798.847661L559.165872 798.847661 559.165872 761.021645 636.160879 760.981562C657.106432 760.856141 674.048166 744.106355 674.048166 723.449062 674.048166 702.780128 657.106432 686.031642 636.160879 685.901043L636.160879 685.77433 559.165872 685.77433 559.165872 648.353024 636.15563 648.353024 636.15563 648.358195 636.15563 648.358195ZM714.538778 103.587138 645.763283 178.724162 359.172997 178.724162 295.302681 103.587138C295.049149 103.347766 260.345199 56.901264 309.7591 28.450632 359.173 0 400.350787 59.808686 425.410443 56.892895 452.798851 53.706144 468.77969 0 512.148943 0 555.518196 0 555.3729 53.263581 584.431029 56.892895 627.913593 62.323797 656.71312 0.00837 700.082374 28.450633 743.451622 56.892895 714.713312 103.404822 714.538778 103.587138Z" p-id="2945" fill="#CFA639"></path></svg>