<?xml version="1.0" standalone="no"?><!DOCTYPE svg PUBLIC "-//W3C//DTD SVG 1.1//EN" "http://www.w3.org/Graphics/SVG/1.1/DTD/svg11.dtd"><svg t="1489054165661" class="icon" style="" viewBox="0 0 1424 1024" version="1.1" xmlns="http://www.w3.org/2000/svg" p-id="3817" xmlns:xlink="http://www.w3.org/1999/xlink" width="89" height="64"><defs><style type="text/css"></style></defs><path d="M123.262547 0C57.875297 0 4.354466 53.877545 4.354466 119.733325L4.354466 253.501194 1423.961155 253.501194 1423.961155 119.733325C1423.961155 53.877545 1370.37733 0 1304.907707 0L123.262547 0ZM123.262547 1021.385226 1304.914166 1021.385226C1370.37733 1021.385226 1423.961155 969.312086 1423.961155 905.704844L1423.961155 419.319893 4.354466 419.319893 4.354466 905.704844C4.354466 969.312086 57.881758 1021.385226 123.262547 1021.385226ZM1193.705707 720.478559 1298.883291 720.478559 1298.883291 835.266992 1193.705707 835.266992 1193.705707 720.478559ZM1058.461269 720.478559 1163.578114 720.478559 1163.578114 835.266992 1058.461269 835.266992 1058.461269 720.478559ZM928.83105 720.478559 1034.043344 720.478559 1034.043344 835.266992 928.83105 835.266992 928.83105 720.478559Z" p-id="3818" fill="#8e8e93"></path></svg>