<?xml version="1.0" standalone="no"?><!DOCTYPE svg PUBLIC "-//W3C//DTD SVG 1.1//EN" "http://www.w3.org/Graphics/SVG/1.1/DTD/svg11.dtd"><svg t="1490181043867" class="icon" style="" viewBox="0 0 1024 1024" version="1.1" xmlns="http://www.w3.org/2000/svg" p-id="3372" xmlns:xlink="http://www.w3.org/1999/xlink" width="48" height="48"><defs><style type="text/css"></style></defs><path d="M579.584 511.488c-11.776 0-23.552 10.752-23.552 24.064 0 10.7584 11.776 21.504 23.552 21.504 17.4144 0 30.2144-10.752 30.2144-21.504-0.0064-13.312-12.8064-24.064-30.2144-24.064zM502.7904 340.48c-17.4144 0-34.304 10.752-34.304 29.184 0 17.4144 16.896 29.1904 34.304 29.1904 18.432 0 30.208-11.776 30.208-29.1904-0.0064-18.432-11.7824-29.184-30.208-29.184z m-164.8704 0c-17.408 0-35.84 10.752-35.84 29.184 0 17.4144 18.432 29.1904 35.84 29.1904 16.384 0 30.208-11.776 30.208-29.1904-0.5184-18.432-13.8304-29.184-30.208-29.184z m164.8704 0c-17.4144 0-34.304 10.752-34.304 29.184 0 17.4144 16.896 29.1904 34.304 29.1904 18.432 0 30.208-11.776 30.208-29.1904-0.0064-18.432-11.7824-29.184-30.208-29.184zM579.584 511.488c-11.776 0-23.552 10.752-23.552 24.064 0 10.7584 11.776 21.504 23.552 21.504 17.4144 0 30.2144-10.752 30.2144-21.504-0.0064-13.312-12.8064-24.064-30.2144-24.064z m131.072 0c-12.288 0-23.552 10.752-23.552 24.064 0 10.7584 10.752 21.504 23.552 21.504 16.896 0 29.184-10.752 29.184-21.504 0-13.312-12.8-24.064-29.184-24.064z m0 0c-12.288 0-23.552 10.752-23.552 24.064 0 10.7584 10.752 21.504 23.552 21.504 16.896 0 29.184-10.752 29.184-21.504 0-13.312-12.8-24.064-29.184-24.064z m-131.072 0c-11.776 0-23.552 10.752-23.552 24.064 0 10.7584 11.776 21.504 23.552 21.504 17.4144 0 30.2144-10.752 30.2144-21.504-0.0064-13.312-12.8064-24.064-30.2144-24.064zM502.7904 340.48c-17.4144 0-34.304 10.752-34.304 29.184 0 17.4144 16.896 29.1904 34.304 29.1904 18.432 0 30.208-11.776 30.208-29.1904-0.0064-18.432-11.7824-29.184-30.208-29.184z m-164.8704 0c-17.408 0-35.84 10.752-35.84 29.184 0 17.4144 18.432 29.1904 35.84 29.1904 16.384 0 30.208-11.776 30.208-29.1904-0.5184-18.432-13.8304-29.184-30.208-29.184zM512 0C229.376 0 0 229.376 0 512s229.376 512 512 512 512-229.376 512-512S794.624 0 512 0zM436.224 641.024c-6.656 1.024-14.336 1.024-20.992 1.024-30.72 0-53.2416-5.1264-82.432-13.312l-84.48 41.984 24.0704-71.68C212.9856 557.056 178.176 504.832 178.176 440.32c0-113.664 107.0144-200.192 236.544-200.192 115.2 0 217.6 68.1024 237.568 164.864-8.192-1.5296-15.8656-2.5536-22.528-2.5536-113.6704 0-200.704 84.992-200.704 187.392 0.512 18.4256 3.072 34.2976 7.168 51.1936z m280.064 106.496c-24.064 5.12-47.6096 12.288-71.68 12.288-111.6096 0-200.192-76.8-200.192-172.032s88.5824-171.52 200.192-171.52c105.9904 0 200.704 76.8 200.704 171.52 0 53.248-35.84 100.864-82.432 135.168l16.896 59.904-63.488-35.328z m-5.632-236.032c-12.288 0-23.552 10.752-23.552 24.064 0 10.7584 10.752 21.504 23.552 21.504 16.896 0 29.184-10.752 29.184-21.504 0-13.312-12.8-24.064-29.184-24.064z m-131.072 0c-11.776 0-23.552 10.752-23.552 24.064 0 10.7584 11.776 21.504 23.552 21.504 17.4144 0 30.2144-10.752 30.2144-21.504-0.0064-13.312-12.8064-24.064-30.2144-24.064z m-46.592-141.824c0-18.432-11.776-29.184-30.208-29.184-17.4144 0-34.304 10.752-34.304 29.184 0 17.4144 16.896 29.1904 34.304 29.1904 18.432-0.0064 30.208-11.7824 30.208-29.1904zM337.92 340.48c-17.408 0-35.84 10.752-35.84 29.184 0 17.4144 18.432 29.1904 35.84 29.1904 16.384 0 30.208-11.776 30.208-29.1904-0.5184-18.432-13.8304-29.184-30.208-29.184z m0 0c-17.408 0-35.84 10.752-35.84 29.184 0 17.4144 18.432 29.1904 35.84 29.1904 16.384 0 30.208-11.776 30.208-29.1904-0.5184-18.432-13.8304-29.184-30.208-29.184z m164.8704 0c-17.4144 0-34.304 10.752-34.304 29.184 0 17.4144 16.896 29.1904 34.304 29.1904 18.432 0 30.208-11.776 30.208-29.1904-0.0064-18.432-11.7824-29.184-30.208-29.184zM579.584 511.488c-11.776 0-23.552 10.752-23.552 24.064 0 10.7584 11.776 21.504 23.552 21.504 17.4144 0 30.2144-10.752 30.2144-21.504-0.0064-13.312-12.8064-24.064-30.2144-24.064z m131.072 0c-12.288 0-23.552 10.752-23.552 24.064 0 10.7584 10.752 21.504 23.552 21.504 16.896 0 29.184-10.752 29.184-21.504 0-13.312-12.8-24.064-29.184-24.064zM337.92 340.48c-17.408 0-35.84 10.752-35.84 29.184 0 17.4144 18.432 29.1904 35.84 29.1904 16.384 0 30.208-11.776 30.208-29.1904-0.5184-18.432-13.8304-29.184-30.208-29.184z m372.736 171.008c-12.288 0-23.552 10.752-23.552 24.064 0 10.7584 10.752 21.504 23.552 21.504 16.896 0 29.184-10.752 29.184-21.504 0-13.312-12.8-24.064-29.184-24.064z" fill="#09B70E" p-id="3373"></path><path d="M845.824 588.288c0-95.232-95.232-171.52-200.704-171.52-111.6096 0-200.192 76.8-200.192 171.52 0 95.232 88.5824 172.032 200.192 172.032 24.064 0 47.616-7.68 71.68-12.288l63.488 35.8464-17.408-60.416c46.592-34.3104 82.944-81.9264 82.944-135.1744z m-266.24-30.72c-11.776 0-23.552-10.752-23.552-21.504 0-13.312 11.776-24.064 23.552-24.064 17.4144 0 30.2144 10.752 30.2144 24.064-0.0064 10.752-12.8064 21.504-30.2144 21.504z m131.072 0c-12.288 0-23.552-10.752-23.552-21.504 0-13.312 10.752-24.064 23.552-24.064 16.896 0 29.184 10.752 29.184 24.064 0 10.752-12.8 21.504-29.184 21.504z" fill="#FFFFFF" p-id="3374"></path><path d="M415.232 240.64c-130.0416 0-236.544 86.5344-236.544 200.192 0 64 34.8096 116.736 94.2144 158.72l-24.0704 71.68 84.48-42.496c29.1904 8.1856 51.712 13.312 82.432 13.312 6.656 0 14.336 0 20.992-1.024-4.1024-16.9024-6.656-32.256-6.656-50.176 0-102.4 87.552-187.392 200.6976-187.392 6.656 0 14.336 1.024 22.5344 2.5536C632.832 308.736 530.432 240.64 415.232 240.64zM337.92 398.848c-17.408 0-35.84-11.776-35.84-29.1904 0-18.432 18.432-29.184 35.84-29.184 16.384 0 30.208 10.752 30.208 29.184-0.5184 17.4144-13.8304 29.1904-30.208 29.1904z m164.8704 0c-17.4144 0-34.304-11.776-34.304-29.1904 0-18.432 16.896-29.184 34.304-29.184 18.432 0 30.208 10.752 30.208 29.184-0.0064 17.4144-11.7824 29.1904-30.208 29.1904z" fill="#FFFFFF" p-id="3375"></path></svg>