<?xml version="1.0" standalone="no"?><!DOCTYPE svg PUBLIC "-//W3C//DTD SVG 1.1//EN" "http://www.w3.org/Graphics/SVG/1.1/DTD/svg11.dtd"><svg t="1490352033614" class="icon" style="" viewBox="0 0 1024 1024" version="1.1" xmlns="http://www.w3.org/2000/svg" p-id="3209" xmlns:xlink="http://www.w3.org/1999/xlink" width="48" height="48"><defs><style type="text/css"></style></defs><path d="M512 512m-512 0a512 512 0 1 0 1024 0 512 512 0 1 0-1024 0Z" fill="#0894EC" p-id="3210"></path><path d="M476.16 433.6128v-44.032c33.3568-29.312 52.6848-73.984 58.0096-133.9904h70.016a433.152 433.152 0 0 1-10.0096 48h156.0064v48h-36.0192c-1.3312 108.032-21.9904 188.672-61.9776 242.0224 23.9872 27.9808 55.3216 51.968 93.9776 71.9872v48c-53.3248-24.0128-97.3312-49.9968-131.9936-78.0032-26.6496 22.6816-69.9904 49.3312-129.9968 80V665.6c37.3248-22.656 67.9936-47.3344 92.0064-73.984-32-40.0128-56.0128-97.3568-72.0128-172.032-7.9872 5.3504-17.3312 10.0096-27.9808 14.0032z m-173.9776 201.984V301.5936h64v264.0128a127.488 127.488 0 0 1 17.9968-4.0192c6.656-2.6624 12.0064-3.9936 16-3.9936V255.5904h65.9968v458.0096h-65.9968v-99.9936c-22.6816 7.9872-55.3472 15.3344-97.9968 22.016z m265.984-236.0064c9.344 56.0128 24.0128 102.016 44.032 138.0096 21.2992-42.6752 32.64-104.6784 33.9712-186.0096H574.208c-8.0128 17.3312-20.6848 33.3312-38.016 48h32z" fill="#FFFFFF" p-id="3211"></path></svg>