<?xml version="1.0" standalone="no"?><!DOCTYPE svg PUBLIC "-//W3C//DTD SVG 1.1//EN" "http://www.w3.org/Graphics/SVG/1.1/DTD/svg11.dtd"><svg t="1490181061540" class="icon" style="" viewBox="0 0 1024 1024" version="1.1" xmlns="http://www.w3.org/2000/svg" p-id="3564" xmlns:xlink="http://www.w3.org/1999/xlink" width="48" height="48"><defs><style type="text/css"></style></defs><path d="M956.44286 557.51052c11.513218-112.785739-19.929912-220.053812-81.07348-305.548998l-560.138371-57.177234c-32.414247-3.309372-61.375859 20.286022-64.684208 52.701293l-41.254589 404.157853c-3.308349 32.41527 20.287045 61.376882 52.702316 64.683185l112.651686 11.499915 41.889039-69.994144 11.017938 75.395154 443.321828 45.25367c46.399773-62.498426 77.090772-137.91507 85.567841-220.970694z" fill="#FFD137" p-id="3565"></path><path d="M377.314996 728.09771l52.905954 5.40101-11.016914-75.395154z" fill="#E6BB31" p-id="3566"></path><path d="M378.600269 568.81396c-73.235978-56.217373-114.387213-0.296759-114.387213-0.296759l-22.552646 29.244045a2785475.577351 2785475.577351 0 0 0-112.862487 146.346089 449.831079 449.831079 0 0 0 24.062022 35.622312c34.631752 46.363957 78.140685 85.98228 128.337947 116.130928l37.858236-50.772361c13.869892-18.59859 50.855248-79.70225 71.610968-115.62746 6.155187-10.654664 10.886955-19.097964 13.159717-23.557532 11.604292-22.757307 45.877887-82.509179-25.226544-137.089262z" fill="#F9CDB2" p-id="3567"></path><path d="M390.668119 729.460754c-20.75572 35.925211-57.741076 97.02887-71.610968 115.62746-8.598842 11.534707-24.060999 32.270984-37.858236 50.772361 54.619992 32.806173 117.141954 54.409191 184.721095 61.307297 162.759921 16.615423 314.028113-56.220443 404.955009-178.688705l-480.2069-49.018413z" fill="#0092FB" p-id="3568"></path><path d="M369.131617 573.538565c-41.605583-27.697829-61.152778-21.517059-74.445526-16.009626-8.556886 3.544733-15.956414 9.618055-22.229281 17.163915 26.505677-3.26844 61.10059-1.865487 87.917352 18.615987 27.161616 22.404266 39.540552 46.623877 45.884027 67.986417 1.396813-2.689249 2.469238-5.145184 3.180436-7.268544 5.815449-17.374716 5.127787-50.243311-40.307008-80.488149z" fill="#FDEFE0" p-id="3569"></path><path d="M406.257166 661.297304c-6.343475-21.363564-18.72241-45.583175-45.884027-67.986417-26.815739-20.482497-61.410652-21.88545-87.917352-18.615986-20.703531 24.907273-29.113061 65.880453-26.250874 85.137029 0.542352 3.64604 3.118014 9.679453 7.441483 16.572444 11.264555-0.565888 26.054399 2.263553 42.394552 14.572903 14.236236 10.721179 23.405059 21.245883 29.31363 30.282701a61.495586 61.495586 0 0 0 2.515286-0.101308c35.462676-2.172479 67.264986-38.441521 78.387302-59.861366z" fill="#FDDCC8" p-id="3570"></path><path d="M296.040948 690.976254c-16.340153-12.30935-31.129998-15.138792-42.394552-14.572903 12.149714 19.381419 38.122249 45.578058 71.707158 44.855603-5.90857-9.036817-15.077394-19.561521-29.312606-30.2827z" fill="#FDE6D4" p-id="3571"></path><path d="M250.546801 247.484557c3.308349-32.416294 32.270984-56.011688 64.684208-52.701292l560.138371 57.177234C803.252899 151.118789 689.816337 80.564897 556.785507 66.985624 310.969962 41.893132 91.354126 220.826408 66.261635 466.642976c-5.788843 56.713676-0.715291 112.031563 13.533224 163.887604l139.14713-73.434499 31.604812-309.611524z" fill="#0092FB" p-id="3572"></path><path d="M210.694141 637.914758l8.248872-80.818677-139.148154 73.434499c11.06501 40.268122 27.663036 78.449723 49.004087 113.576755l81.895195-106.192577z" fill="#F2AF94" p-id="3573"></path><path d="M470.243479 364.908944c-0.651846 6.385431-6.355755 11.033287-12.741186 10.381441l-126.718053-12.93459c-6.384407-0.651846-11.032264-6.355755-10.381441-12.741186l8.018627-78.555123c0.650823-6.384407 6.355755-11.032264 12.741186-10.380418l126.718053 12.93459c6.384407 0.651846 11.032264 6.356778 10.381441 12.741185l-8.018627 78.554101z" fill="#E6B636" p-id="3574"></path><path d="M308.673663 405.897474l172.517146 17.600866-5.474689 53.652967-172.517145-17.600866zM530.80274 428.615894L703.321932 446.236204l-5.479805 53.651944-172.518169-17.619286zM753.013681 451.231985l172.517145 17.600866-5.474688 53.651944-172.517145-17.600866z" fill="#E6BB31" p-id="3575"></path><path d="M753.008564 642.074497m-61.978586 0a61.978587 61.978587 0 1 0 123.957173 0 61.978587 61.978587 0 1 0-123.957173 0Z" fill="#F35B37" p-id="3576"></path><path d="M841.937966 651.152247m-61.977563 0a61.977563 61.977563 0 1 0 123.955126 0 61.977563 61.977563 0 1 0-123.955126 0Z" fill="#E6B636" p-id="3577"></path><path d="M353.057523 290.655799l25.195845 2.573615-1.24127 12.153808-25.195845-2.573615zM351.282087 308.260759l37.646411 3.840468-1.240247 12.153808-37.646411-3.840468zM393.941676 312.650743l26.086121 2.663666-1.24127 12.153808-26.086122-2.663666zM425.083953 315.800479l26.086122 2.66162-1.240247 12.153807-26.086122-2.660596zM349.456508 325.928141l68.77027 7.023973-1.24127 12.152785-68.769247-7.023974zM423.286004 333.434092l26.084075 2.661619-1.240247 12.154831-26.084075-2.660596zM384.20287 293.803489l68.769247 7.016811-1.240247 12.154831-68.769247-7.016811z" fill="#FCFCFD" p-id="3578"></path></svg>