<?xml version="1.0" standalone="no"?><!DOCTYPE svg PUBLIC "-//W3C//DTD SVG 1.1//EN" "http://www.w3.org/Graphics/SVG/1.1/DTD/svg11.dtd"><svg t="1490435677766" class="icon" style="" viewBox="0 0 1024 1024" version="1.1" xmlns="http://www.w3.org/2000/svg" p-id="24469" xmlns:xlink="http://www.w3.org/1999/xlink" width="48" height="48"><defs><style type="text/css"></style></defs><path d="M991.913 444.498l-423.598-415.556c-15.694-15.202-36.005-22.803-56.315-22.803s-40.621 7.601-56.315 22.803l-423.597 415.556c-37.628 34.839-33.782 95.444 7.946 125.25l67.278 43.424v323.753c0 44.7 36.237 80.938 80.938 80.938h647.504c44.702 0 80.938-36.237 80.938-80.938v-323.753l67.278-43.424c41.727-29.806 45.571-90.412 7.943-125.25zM410.828 977.393v-303.518c0-22.314 18.155-40.468 40.468-40.468h121.407c22.314 0 40.468 18.155 40.468 40.468v303.518h-202.343zM876.221 592.346v344.578c0 22.314-18.155 40.468-40.468 40.468h-182.111v-303.517c0-44.702-36.236-80.938-80.938-80.938h-121.407c-44.702 0-80.938 36.236-80.938 80.938v303.518h-182.109c-22.314 0-40.468-18.155-40.468-40.468v-344.578l-39.029-27.879 389.785-389.783c7.894-7.874 20.729-7.894 28.623 0l389.075 389.084-40.014 28.577zM960.445 536.817l-10.832 3.106-393.845-393.853c-23.683-23.692-62.195-23.673-85.847 0l-394.554 394.554-11.811-3.806c-9.945-7.103-16.091-18.174-16.865-30.369-0.772-12.197 3.926-23.952 13.555-32.883l423.597-415.557c7.59-7.353 17.59-11.402 28.158-11.402s20.567 4.049 28.158 11.402l424.261 416.185c8.967 8.302 13.666 20.060 12.892 32.256-0.775 12.197-6.923 23.266-16.866 30.369z" fill="#13227a" p-id="24470"></path></svg>