<?xml version="1.0" standalone="no"?><!DOCTYPE svg PUBLIC "-//W3C//DTD SVG 1.1//EN" "http://www.w3.org/Graphics/SVG/1.1/DTD/svg11.dtd"><svg t="1488957644549" class="icon" style="" viewBox="0 0 1024 1024" version="1.1" xmlns="http://www.w3.org/2000/svg" p-id="3018" xmlns:xlink="http://www.w3.org/1999/xlink" width="48" height="48"><defs><style type="text/css"></style></defs><path d="M452.885333 410.389333c104.661333 0 213.546667-23.018667 278.933334-66.922666v79.914666h60.565333v-174.976c0-105.194667-174.869333-161.984-339.413333-161.984S113.429333 143.210667 113.429333 248.405333V725.973333c0 105.216 174.869333 162.005333 339.434667 162.005334v-60.48c-172.842667 0-278.954667-59.136-278.954667-101.525334V582.4c65.365333 43.818667 174.165333 66.944 278.954667 66.944v-60.586667c-172.842667 0-278.954667-59.136-278.954667-101.525333v-143.658667c65.386667 43.797333 174.250667 66.816 278.976 66.816z m0-263.488c172.842667 0 278.933333 59.136 278.933334 101.504 0 42.368-106.112 101.504-278.933334 101.504S173.909333 290.752 173.909333 248.405333c0-42.368 106.218667-101.504 278.976-101.504z m271.36 296.64c-150.336 0-228.906667 57.813333-228.906666 114.922667v306.88c0 57.109333 78.677333 114.922667 228.906666 114.922667 149.162667 0 227.669333-57.002667 228.885334-113.685334h0.106666V558.464c-0.085333-57.109333-78.698667-114.922667-228.992-114.922667z m0 60.48c111.125333 0 168.426667 38.165333 168.426667 54.442667s-57.301333 54.442667-168.426667 54.442667c-111.146667 0-168.448-38.165333-168.448-54.442667s57.301333-54.442667 168.448-54.442667z m0 415.744c-111.146667 0-168.448-38.165333-168.448-54.442666v-73.258667c38.378667 20.885333 94.762667 34.794667 168.448 34.794667 73.664 0 129.962667-13.909333 168.426667-34.794667v73.258667c0 16.277333-57.301333 54.442667-168.426667 54.442666z m0-153.472c-111.146667 0-168.448-38.165333-168.448-54.464v-73.258666c38.378667 20.885333 94.762667 34.794667 168.448 34.794666 73.664 0 129.962667-13.909333 168.426667-34.794666v73.258666c0 16.298667-57.301333 54.464-168.426667 54.464z" fill="#d81e06" p-id="3019"></path></svg>