<?xml version="1.0" standalone="no"?><!DOCTYPE svg PUBLIC "-//W3C//DTD SVG 1.1//EN" "http://www.w3.org/Graphics/SVG/1.1/DTD/svg11.dtd"><svg t="1496849378334" class="icon" style="" viewBox="0 0 1024 1024" version="1.1" xmlns="http://www.w3.org/2000/svg" p-id="6357" xmlns:xlink="http://www.w3.org/1999/xlink" width="48" height="48"><defs><style type="text/css"></style></defs><path d="M623.900444 286.833778H805.546667c31.288889 0 60.302222 25.144889 64.739555 56.149333l84.024889 588.231111c4.494222 31.288889-17.180444 56.149333-48.298667 56.149334H117.987556a48.014222 48.014222 0 0 1-48.355556-56.092445L153.656889 342.983111a67.185778 67.185778 0 0 1 64.853333-56.149333h181.589334a150.129778 150.129778 0 1 1 223.800888 0zM347.192889 501.418667h-65.422222v285.809777h65.422222v-84.878222l24.064-32.426666L438.044444 787.228444h73.557334L413.582222 623.900444l88.120889-122.481777H430.762667L348.16 615.879111h-0.910222V501.418667z m354.986667 84.821333h62.634666c0-29.070222-7.850667-51.427556-23.608889-67.015111-15.758222-15.644444-41.528889-23.438222-77.198222-23.438222-20.935111 0-38.343111 3.072-52.280889 9.216a78.961778 78.961778 0 0 0-33.564444 27.420444c-8.533333 12.117333-14.506667 27.306667-17.976889 45.454222-3.470222 18.147556-5.233778 39.253333-5.233778 63.203556 0 24.860444 1.251556 46.648889 3.640889 65.479111 2.446222 18.773333 7.224889 34.645333 14.336 47.445333 7.111111 12.8 16.952889 22.300444 29.525333 28.444445 12.515556 6.087111 28.842667 9.159111 48.810667 9.159111 15.416889 0 28.672-2.275556 39.765333-6.997333 11.036444-4.664889 20.48-12.572444 28.387556-23.779556h0.910222v26.396444h48.128v-154.168888h-105.813333v42.496h43.121778v29.184a45.283556 45.283556 0 0 1-14.279112 34.417777 43.178667 43.178667 0 0 1-13.198222 8.419556 35.271111 35.271111 0 0 1-35.84-5.006222 49.607111 49.607111 0 0 1-13.653333-22.414223 160.426667 160.426667 0 0 1-6.599111-35.441777 537.941333 537.941333 0 0 1-1.820445-46.421334c0-35.726222 3.470222-61.383111 10.467556-76.8 6.940444-15.530667 18.318222-23.324444 34.076444-23.324444 6.656 0 12.288 1.592889 17.009778 4.664889a39.253333 39.253333 0 0 1 11.605333 11.605333 49.664 49.664 0 0 1 6.542223 15.36c1.365333 5.688889 2.048 11.150222 2.048 16.497778zM512 261.802667a75.093333 75.093333 0 1 0 0-150.129778 75.093333 75.093333 0 0 0 0 150.129778z" fill="#6C748E" p-id="6358"></path></svg>