<?xml version="1.0" standalone="no"?><!DOCTYPE svg PUBLIC "-//W3C//DTD SVG 1.1//EN" "http://www.w3.org/Graphics/SVG/1.1/DTD/svg11.dtd"><svg t="1489055293414" class="icon" style="" viewBox="0 0 1024 1024" version="1.1" xmlns="http://www.w3.org/2000/svg" p-id="2823" xmlns:xlink="http://www.w3.org/1999/xlink" width="48" height="48"><defs><style type="text/css"></style></defs><path d="M463.038428 632.917409c-9.910493-3.877705-17.620489-8.366946-23.099541-13.293809-5.530142-4.989307-9.600855-10.232517-12.271486-15.691442-2.663406-5.540463-4.174442-11.002485-4.519173-16.503727a60.415613 60.415613 0 0 1 1.073929-16.226601c1.423305-8.910361 4.265269-15.175378 8.496478-18.896715 4.245142-3.717209 9.795927-8.23793 16.510952-13.575064 2.813581-2.476591 5.395449-5.973957 7.703803-10.349663a126.94452 126.94452 0 0 0 6.105038-13.594158 391.474284 391.474284 0 0 0 5.343326-16.997601c3.543812-1.084767 6.90184-3.018974 10.10763-5.875904 5.964152-5.270562 15.910253-20.914526 11.989715-42.557734-0.895887-3.915378-2.042581-7.121167-3.461757-9.597759a18.606688 18.606688 0 0 0-5.852682-6.88739 342.911629 342.911629 0 0 0-2.664439-43.116115c-1.783001-12.433014-4.76998-25.455373-9.034732-39.092881a112.174252 112.174252 0 0 0-20.225065-37.532819c-3.869448-4.967116-9.294829-9.915654-16.238986-14.903412-6.918354-4.974341-14.826003-9.425393-23.65689-13.303614-8.904168-3.937052-18.37033-6.99628-28.504795-9.310827a135.382683 135.382683 0 0 0-30.574212-3.466918c-8.158456 0-16.614165 0.631662-25.288684 1.850606a111.206632 111.206632 0 0 0-26.048331 7.189803c-8.716837 3.571163-17.212799 8.434034-25.565295 14.654154-8.324628 6.197929-15.88445 14.267105-22.60928 24.208046-7.470026 10.306314-13.026488 21.988455-16.791174 35.115059-3.700695 13.142086-6.260372 25.340807-7.678 36.704537a255.219453 255.219453 0 0 0-2.153019 40.448064c-3.17947 3.550004-5.509499 7.251215-6.907517 11.187235-1.417628 3.534522-2.413115 7.793599-2.924535 12.756587-0.542383 4.95215 0.255452 10.451328 2.387312 16.504759 1.762359 6.046722 3.909185 10.633499 6.412096 13.855286 2.481236 3.186179 4.779785 5.656061 6.881197 7.424097 2.477107 1.761326 4.978986 3.007105 7.444223 3.743012 1.808288 6.000276 3.571163 11.677496 5.33765 16.9976a192.375759 192.375759 0 0 0 5.854746 13.594158c2.121539 4.390673 4.603291 7.878233 7.444224 10.347599a277.069603 277.069603 0 0 1 16.484116 14.664475c4.988791 4.75553 7.824562 11.250711 8.518152 19.413812 0.358664 5.124516 0.547544 10.269674 0.56251 15.410187 0 4.623417-0.912401 9.028024-2.674243 13.313935-1.757714 4.279719-4.59297 8.518152-8.538795 12.755554-3.868932 4.27043-9.54512 8.716837-17.010502 13.335094-9.555957 5.995116-20.575988 10.638659-32.962556 13.839805a439.97914 439.97914 0 0 0-35.938698 10.891014c-11.525773 4.096516-21.643208 9.632851-30.313083 16.477924-8.715805 6.96996-13.950242 16.952703-15.733759 30.089112-3.528846 23.052579-4.342163 41.851759-2.380604 56.426438 1.933692 14.503463 4.680701 23.198625 8.23535 26.032849 2.111734 1.794355 7.282695 3.555165 15.430313 5.323716 8.147618 1.808288 18.090624 3.575291 29.792891 5.322168 11.749745 1.751005 24.771588 3.440083 39.117652 5.066716a1659.975088 1659.975088 0 0 0 43.37776 4.249271c14.524105 1.214815 28.661679 2.235589 42.30383 2.93434 13.643184 0.729715 25.631867 1.057415 35.938698 1.057416 10.279479 0 22.436399-0.327701 36.438763-1.057416 13.992043-0.703395 28.646197-1.705592 43.919627-2.93434a1168.944833 1168.944833 0 0 0 45.462142-4.541879 681.318535 681.318535 0 0 0 24.115155-3.237269v-148.757514c-2.714497-0.799899-27.685286-8.149683-37.167445-11.881857z m48.805205-123.00334c49.487958-9.253028 95.539445-44.049159 95.539445-44.049159l-92.321786 0.004645v-14.888447h99.75672c4.560974-13.939921 6.634003-38.284208 6.228892-73.009123h16.906257c0 34.453981-1.876925 58.798268-5.635419 73.009123h76.225234v14.888447s-69.980859-0.014966-81.214541 0c-2.043097 3.925183-4.461889 6.839912-4.461889 6.839912s56.429535 24.386088 84.282541 37.413092l-8.85669 15.291493a1944.79752 1944.79752 0 0 0-85.070055-40.835629c-18.235638 17.8393-48.820687 31.583633-91.724184 41.232482a134.486279 134.486279 0 0 0-9.654525-15.896836z" p-id="2824" fill="#8e8e93"></path><path d="M518.88223 354.837352h92.114328c-3.352352-6.036917-7.851914-13.069321-13.470303-21.123532l14.678409-8.247219c4.429893 5.901708 9.784057 13.679309 16.097584 23.333834l-11.06596 6.036917h86.086184v36.006302h-16.075393v-21.117855h-152.267265v21.117855h-16.074362v-36.006302h-0.023222z m24.740624 54.308512a549.294913 549.294913 0 0 1 43.456202 21.921366l-8.663167 13.882122a471.563805 471.563805 0 0 0-42.441104-22.932852l7.648069-12.870636z" p-id="2825" fill="#8e8e93"></path><path d="M561.716574 378.363162c15.556749 7.507699 29.709805 15.086615 42.439039 22.729007l-9.028023 13.679308a714.364694 714.364694 0 0 0-41.2459-24.537811l7.834884-11.870504z m334.905928-15.085583v-14.277943h-102.786016a345.642124 345.642124 0 0 0 13.480108-16.896967l-15.699699-6.436867c-21.718038 29.233478-45.860028 52.500223-72.405328 69.791464a277.538705 277.538705 0 0 1 10.457521 13.074482c19.441163-13.940437 36.74737-29.161745 51.907782-45.656183h93.513894c-17.420773 16.905741-37.935349 31.851986-61.560243 44.857831a3498.073279 3498.073279 0 0 0-30.954551-27.957767l-12.062996 10.458037a724.439812 724.439812 0 0 1 26.940089 25.945634c-24.138894 11.800836-51.221417 21.78977-81.238796 29.969385a299.779 299.779 0 0 1 9.231869 14.88277 998.927546 998.927546 0 0 0 32.583765-11.462814v75.429463h16.08778v-13.070353h105.99903v13.06416h16.07849V433.470024h-98.333932c40.894976-18.230477 73.826568-41.629851 98.761233-70.192445z m-16.495986 84.684555v49.883779h-106.022253v-49.883779h106.022253z m14.049843 153.629157c0 4.775656-4.655413 8.654393-10.385788 8.654394h-346.957571c-5.737084 0-10.385788-3.878737-10.385788-8.654394v-6.06788c0-4.773592 4.655413-8.647168 10.385788-8.647169h346.957571c5.737084 0 10.385788 3.873576 10.385788 8.647169v6.06788z m-277.765258 83.977548c-0.003096 5.733987-4.648705 10.38166-10.382691 10.384756h-66.48659c-5.731923-0.008257-10.378563-4.652833-10.385788-10.384756v-4.161024c0-5.744308 4.665735-10.388884 10.385788-10.388885h66.48659c5.733987 0 10.382692 4.660574 10.382691 10.388885v4.161024z" p-id="2826" fill="#8e8e93"></path><path d="M962.310741 913.824464H64.129726c-29.500283 0-53.495711-26.694443-53.495711-59.520758V202.670204c0-32.814962 24.000589-59.516629 53.495711-59.51663h898.181015c29.493058 0 53.495195 26.701668 53.495195 59.51663v651.633502c-0.009289 32.814446-23.996976 59.520758-53.495195 59.520758zM64.129726 157.926939c-21.826411 0-39.582625 20.07489-39.582626 44.742749v651.633502c0 24.667343 17.755698 44.746362 39.582626 44.746361h898.181015c21.819702 0 39.587786-20.079018 39.587786-44.746361V202.670204c0-24.662183-17.768084-44.742749-39.587786-44.742749H64.129726v-0.000516z" p-id="2827" fill="#8e8e93"></path></svg>