<?xml version="1.0" standalone="no"?><!DOCTYPE svg PUBLIC "-//W3C//DTD SVG 1.1//EN" "http://www.w3.org/Graphics/SVG/1.1/DTD/svg11.dtd"><svg t="1488956792827" class="icon" style="" viewBox="0 0 1024 1024" version="1.1" xmlns="http://www.w3.org/2000/svg" p-id="9711" xmlns:xlink="http://www.w3.org/1999/xlink" width="48" height="48"><defs><style type="text/css"></style></defs><path d="M876.469945 370.500289c-6.4192-4.285606-15.089673-2.542916-19.374256 3.873214-7.303336 10.952446-17.34504 15.685237-25.970488 17.612123-0.072655-16.269545-7.955182-33.250288-22.38073-47.679929-13.774725-13.774725-33.785477-16.540721-47.568389-6.611581-10.31288 7.442506-18.434861 23.947412-7.40669 46.02115 6.867408 13.737886 19.551288 24.738427 34.996049 31.18628-2.925632 2.067079-6.307659 4.061502-10.116405 5.959735-8.374738 4.189416-16.940834 6.695492-25.242917 8.150634C713.36517 347.267145 609.127108 288.978601 486.830761 288.978601c-24.431435 0-46.924729 1.591241-67.938322 4.313236-34.996049-22.660092-99.936083-50.557466-164.92012-46.227858 2.998287 27.013237 19.566638 61.709457 40.928155 86.744643-41.383526 25.566282-68.062142 60.471256-81.493036 100.875478-15.748682 6.91141-32.757055 11.296277-51.768037 12.583596-13.899568 0.951675-24.39562 12.871145-23.409153 26.76969 2.562359 35.823903 13.179161 96.842629 55.199183 112.99961 7.870248 3.03001 20.426215 4.816702 35.375695 5.768377 17.808598 29.095665 43.942815 54.702879 76.208683 74.997088-5.399987 26.985608-12.08013 54.203506-20.306488 81.696674-3.557012 11.875468 5.440919 23.827685 17.85567 23.827685l78.259388 0c7.742335 0 14.802124-4.740978 17.492396-11.996219 6.15928-16.636912 11.363815-33.664727 15.788591-51.005674 23.212678 4.629437 47.579645 7.116071 72.727395 7.116071 29.235858 0 57.43306-3.346211 83.978646-9.521864-3.457752 13.806447-7.154957 27.64564-11.316743 41.571814-3.569292 11.883655 5.428639 23.835871 17.844413 23.835871l78.259388 0c7.742335 0 14.801101-4.740978 17.491373-11.996219 13.94664-37.658691 23.176862-77.235059 28.828582-118.255311 42.959418-37.538965 69.001537-86.393649 69.001537-139.865491 0-16.412808-2.534729-32.378431-7.163143-47.728024 8.997931-2.00261 18.23941-5.047969 27.38572-9.629311 15.133675-7.562233 24.662703-16.280802 30.607088-24.723078 24.115234-0.491187 45.676295-11.875468 58.595536-31.246655C884.628766 383.455345 882.886075 374.784872 876.469945 370.500289L876.469945 370.500289zM319.172273 438.009845c-12.863982 0-23.284309-10.42442-23.284309-23.288402 0-12.862959 10.420327-23.284309 23.284309-23.284309 12.862959 0 23.284309 10.42135 23.284309 23.284309C342.456582 427.585425 332.027046 438.009845 319.172273 438.009845L319.172273 438.009845zM563.226708 464.500173c-9.733689 3.269463-20.306488-1.994424-23.575952-11.755742-2.390443-7.15598-11.400654-15.510252-28.9084-15.510252-13.602809 0-21.629623 8.821923-22.525016 17.532305-1.12666 10.849092 8.729825 19.539009 26.350135 23.220864 42.147936 8.829086 58.384735 38.269605 55.766095 63.532989-2.37407 22.939455-18.878976 41.371246-40.955784 48.127114l0 11.363815c0 10.281157-8.346085 18.627243-18.627243 18.627243-10.285251 0-18.627243-8.346085-18.627243-18.627243l0-10.804067c-25.559119-5.90857-40.453341-23.248494-45.613874-38.673811-3.261277-9.761318 2.00261-20.326954 11.763928-23.575952 9.750061-3.270487 20.314675 1.994424 23.572882 11.755742 2.581802 7.722892 12.519128 15.509229 28.904307 15.509229 13.59053 0 21.617343-8.821923 22.5199-17.532305 1.127683-10.848069-8.725732-19.542078-26.350135-23.219841-42.155099-8.830109-58.379619-38.273698-55.766095-63.532989 2.379187-22.940478 18.883069-41.376363 40.956807-48.127114l0-11.373025c0-10.284227 8.346085-18.627243 18.631336-18.627243 10.281157 0 18.627243 8.343015 18.627243 18.627243l0 10.80509c25.550932 5.904477 40.440038 23.248494 45.600571 38.673811C578.240657 450.677353 572.97984 461.23071 563.226708 464.500173L563.226708 464.500173zM778.75239 371.21558c-2.841721-5.672186-2.786463-9.761318-1.258667-10.861372 0.606821-0.434905 1.526773-0.698918 2.653433-0.698918 2.339278 0 5.588275 1.166569 8.821923 4.405333 8.466835 8.478092 13.495362 17.994839 14.130835 26.397207C792.155654 386.816906 783.073812 379.849214 778.75239 371.21558L778.75239 371.21558zM778.75239 371.21558" p-id="9712" fill="#d81e06"></path></svg>