<?xml version="1.0" standalone="no"?><!DOCTYPE svg PUBLIC "-//W3C//DTD SVG 1.1//EN" "http://www.w3.org/Graphics/SVG/1.1/DTD/svg11.dtd">
<svg t="1488421358318" class="icon" style="" viewBox="0 0 1024 1024" version="1.1" xmlns="http://www.w3.org/2000/svg" p-id="4466" xmlns:xlink="http://www.w3.org/1999/xlink" width="200" height="200"><defs><style type="text/css"></style></defs>
<g fill="gray">
<path d="M518.4 224c-102.4 0-185.6 83.2-185.6 192s185.6 345.6 185.6 345.6S704 524.8 704 416C710.4 307.2 627.2 224 518.4 224zM518.4 537.6c-64 0-121.6-57.6-121.6-121.6S448 294.4 518.4 294.4 640 345.6 640 416 588.8 537.6 518.4 537.6zM518.4 320C467.2 320 428.8 364.8 428.8 416S467.2 512 518.4 512C576 512 614.4 467.2 614.4 416S576 320 518.4 320zM870.4 64 153.6 64C102.4 64 64 102.4 64 153.6l0 716.8C64 921.6 102.4 960 153.6 960l716.8 0c51.2 0 89.6-38.4 89.6-89.6L960 153.6C960 102.4 921.6 64 870.4 64zM518.4 844.8c-108.8 0-204.8-32-204.8-70.4 0-25.6 44.8-51.2 108.8-57.6 6.4 6.4 12.8 19.2 19.2 25.6-57.6 6.4-96 19.2-96 38.4 0 25.6 76.8 38.4 172.8 38.4s172.8-19.2 172.8-38.4-38.4-32-96-38.4c6.4-6.4 12.8-12.8 19.2-25.6 64 12.8 108.8 32 108.8 57.6C723.2 812.8 633.6 844.8 518.4 844.8zM518.4 800c0 0-217.6-262.4-217.6-384s96-217.6 217.6-217.6 217.6 96 217.6 217.6S518.4 800 518.4 800z" p-id="4467"></path>
</g>
</svg>