<?xml version="1.0" standalone="no"?><!DOCTYPE svg PUBLIC "-//W3C//DTD SVG 1.1//EN" "http://www.w3.org/Graphics/SVG/1.1/DTD/svg11.dtd"><svg t="1490066875135" class="icon" style="" viewBox="0 0 1024 1024" version="1.1" xmlns="http://www.w3.org/2000/svg" p-id="7732" xmlns:xlink="http://www.w3.org/1999/xlink" width="48" height="48"><defs><style type="text/css"></style></defs><path d="M617.014614 245.464136H367.078112v-99.768184h50.22812c0-13.761129 4.816395-25.630102 14.449185-35.090879 9.63279-9.63279 21.32975-14.449185 35.090879-14.449185h50.22812c13.933143 0 25.630102 4.816395 35.090879 14.449185 9.63279 9.63279 14.449185 21.32975 14.449185 35.090879h50.22812v99.768184h0.172014z" fill="#15c9d7" p-id="7733"></path><path d="M492.476398 200.740467c8.600706 0 15.825298-3.096254 22.017807-9.116748 6.020494-6.192508 9.116748-13.417101 9.116747-22.017806 0-9.116748-3.096254-16.513355-9.116747-22.361834-6.192508-5.84848-13.417101-8.77272-22.017807-8.77272-9.116748 0-16.513355 2.92424-22.361834 8.77272-5.84848 5.84848-8.77272 13.245087-8.77272 22.361834 0 8.600706 2.92424 15.825298 8.77272 22.017806 5.84848 6.020494 13.245087 9.116748 22.361834 9.116748z" fill="#8a8a8a" p-id="7734"></path><path d="M692.872837 593.620695c23.909961 0 46.615824 4.644381 67.945574 13.933143 21.32975 9.288762 39.907274 22.017806 55.904586 37.843105 15.997312 15.997312 28.554342 34.574836 37.843104 55.904586 9.288762 21.32975 13.933143 43.863598 13.933143 67.945573 0 24.426004-4.644381 47.30388-13.933143 68.63363-9.288762 21.32975-22.017806 39.907274-37.843104 55.904586-15.997312 15.997312-34.574836 28.554342-55.904586 37.499076-21.32975 9.116748-43.863598 13.589115-67.945574 13.589115-24.426004 0-47.30388-4.472367-68.63363-13.589115-21.32975-9.116748-39.907274-21.501764-55.904586-37.499076s-28.554342-34.574836-37.843104-55.904586c-9.288762-21.32975-13.933143-44.207626-13.933143-68.63363 0-23.909961 4.644381-46.615824 13.933143-67.945573 9.288762-21.32975 22.017806-39.907274 37.843104-55.904586 15.997312-15.997312 34.574836-28.554342 55.904586-37.843105 21.32975-9.288762 44.207626-13.933143 68.63363-13.933143z" fill="#cdcdcd" p-id="7735"></path><path d="M801.413741 754.109861c3.096254-3.78431 6.192508-8.256677 8.77272-13.589115 2.580212-5.332437 1.892155-10.148833-2.408198-14.449185-1.032085-1.032085-3.612296-3.78431-7.568621-7.91265-3.956325-4.300353-6.536536-6.70855-7.568621-7.224592-5.332437-3.78431-10.320847-4.300353-15.137241-1.548127-4.816395 2.580212-9.63279 6.364522-14.277172 11.180917-12.213002 12.213002-24.426004 24.25399-36.294977 35.950949-12.040988 11.69696-23.221905 22.877877-33.88678 33.542752-3.78431 3.78431-7.912649 6.020494-12.385016 6.70855-4.472367 0.860071-8.084663-0.688056-10.664874-4.300353-1.548127-1.548127-4.128339-4.300353-7.568621-7.912649-3.440282-3.78431-7.052579-7.740635-10.836889-12.040988s-7.396607-8.428691-10.836889-12.385016-6.020494-6.70855-7.568621-8.428691c-3.268268-2.752226-6.70855-4.472367-10.836889-5.160423-3.956325-0.860071-8.084663 0.688056-12.385016 4.300352-0.516042 0.516042-1.892155 1.720141-3.956325 3.612297-2.064169 1.892155-4.300353 3.956325-6.364522 6.364522-2.064169 2.408198-4.300353 4.472367-6.364522 6.364522-2.064169 1.892155-3.440282 3.096254-3.956324 3.612296-8.084663 8.428691-6.880564 18.40551 3.096254 29.586427 3.268268 3.78431 7.396607 8.428691 12.729044 13.933143 5.332437 5.676466 10.836889 11.524945 16.685369 17.889468 5.84848 6.364522 11.69696 12.729044 17.545439 18.749538 5.84848 6.192508 10.836889 11.008903 15.137242 14.793213 4.300353 4.300353 10.148833 6.192508 17.545439 6.020494 7.396607-0.344028 13.073072-2.580212 16.857383-6.70855 7.396607-6.880564 15.997312-15.309256 25.458088-25.11406 9.63279-9.804804 19.609609-19.781623 29.930455-29.930456 10.320847-10.148833 20.469679-20.125651 30.274484-29.930455 9.976818-9.976818 18.921552-18.577524 26.834201-25.97413z" fill="#fa733a" p-id="7736"></path><path d="M464.610113 745.337141c0 3.78431-0.172014 7.396607-0.344029 11.180917-0.344028 3.78431-0.344028 7.740635-0.344028 12.040988 0 23.909961 3.440282 46.615824 10.320847 68.289602 6.880564 21.501764 16.685369 41.455401 29.586427 59.516882H270.578196c-10.148833 0-21.157736-2.92424-33.198723-8.77272-12.040988-5.84848-23.221905-13.589115-33.542752-23.221905s-19.093566-20.469679-25.974131-32.682681-10.320847-25.11406-10.320846-38.359146V298.960524c0-11.180917 2.580212-22.705863 7.912649-34.74685 5.332437-12.040988 12.213002-23.049891 20.813707-33.198724s18.40551-18.577524 29.586427-25.11406c11.180917-6.70855 22.877877-9.976818 35.090879-9.976818h56.764656v99.768184h348.844616v-99.768184h49.540064c12.213002 0 24.25399 2.580212 36.294977 7.912649 12.040988 5.332437 22.877877 12.55703 32.338653 21.501764 9.63279 9.116748 17.373425 19.953637 23.565933 32.682681 6.192508 12.729044 9.116748 26.318159 9.116748 40.767344V581.407694c-18.577524-12.213002-38.531161-21.845792-59.86091-28.726357-21.32975-6.880564-43.863598-10.320847-67.945574-10.320846h-5.504451c9.63279-3.78431 17.373425-9.804804 23.565933-18.40551 6.020494-8.428691 9.116748-18.061482 9.116748-28.726357 0-13.933143-4.988409-25.630102-14.793214-35.090878-9.804804-9.63279-21.673778-14.449185-35.606921-14.449186H317.538048c-13.933143 0-25.630102 4.816395-35.606921 14.449186s-14.793214 21.32975-14.793213 35.090878c0 13.761129 4.988409 25.630102 14.793213 35.606921 9.804804 9.804804 21.673778 14.793214 35.606921 14.793214h334.567445c-31.994625 5.332437-60.892995 16.685369-87.03914 33.886779-26.146145 17.201411-47.647909 39.219217-64.677305 65.881405H317.538048c-13.933143 0-25.630102 4.816395-35.606921 14.449185-9.804804 9.63279-14.793214 21.32975-14.793213 35.090879 0 13.761129 4.988409 25.630102 14.793213 35.60692 9.804804 9.804804 21.673778 14.793214 35.606921 14.793214h147.072065z" fill="#707070" p-id="7737"></path></svg>