<?xml version="1.0" standalone="no"?><!DOCTYPE svg PUBLIC "-//W3C//DTD SVG 1.1//EN" "http://www.w3.org/Graphics/SVG/1.1/DTD/svg11.dtd"><svg t="1495456670353" class="icon" style="" viewBox="0 0 1024 1024" version="1.1" xmlns="http://www.w3.org/2000/svg" p-id="7642" xmlns:xlink="http://www.w3.org/1999/xlink" width="48" height="48"><defs><style type="text/css"></style></defs><path d="M512 0c281.6 0 512 230.4 512 512s-230.4 512-512 512S0 793.6 0 512 230.4 0 512 0z" fill="#F35959" p-id="7643" class="selected"></path><path d="M683.52 348.16c-17.92-15.36-43.52-12.8-58.88 2.56-15.36 17.92-12.8 43.52 2.56 58.88 35.84 30.72 58.88 76.8 58.88 128a171.52 171.52 0 0 1-343.04 0c0-51.2 23.04-97.28 58.88-128 17.92-15.36 17.92-40.96 2.56-58.88-15.36-17.92-40.96-17.92-58.88-2.56-53.76 46.08-87.04 115.2-87.04 192 0 140.8 115.2 256 256 256s256-115.2 256-256c-2.56-76.8-35.84-143.36-87.04-192zM512 581.12c23.04 0 40.96-17.92 40.96-40.96V273.92c0-23.04-17.92-40.96-40.96-40.96s-40.96 17.92-40.96 40.96v266.24c0 23.04 17.92 40.96 40.96 40.96z" fill="#FFFFFF" p-id="7644"></path></svg>