<?xml version="1.0" standalone="no"?>
<!DOCTYPE svg PUBLIC "-//W3C//DTD SVG 1.1//EN" "http://www.w3.org/Graphics/SVG/1.1/DTD/svg11.dtd">
<svg t="1488361171531" class="icon" style="" viewBox="0 0 1024 1024" version="1.1" xmlns="http://www.w3.org/2000/svg" p-id="755" xmlns:xlink="http://www.w3.org/1999/xlink" width="200" height="200">
<defs><style type="text/css"></style></defs>
<g transform="translate(5.000000, 7.000000)" fill="gray">
<path d="M791.272727 1024 232.727273 1024C104.192 1024 0 919.808 0 791.272727L0 232.727273C0 104.192 104.192 0 232.727273 0l558.545455 0c128.535273 0 232.727273 104.192 232.727273 232.727273l0 558.545455C1024 919.808 919.808 1024 791.272727 1024zM814.545455 488.727273c0-38.493091-31.325091-69.818182-69.818182-69.818182L372.363636 418.909091l0-93.090909c0-77.009455 62.626909-139.636364 139.636364-139.636364s139.636364 62.626909 139.636364 139.636364c0 12.846545 10.426182 23.272727 23.272727 23.272727s23.272727-10.426182 23.272727-23.272727c0-102.656-83.525818-186.181818-186.181818-186.181818s-186.181818 83.525818-186.181818 186.181818l0 93.090909-46.545455 0c-38.493091 0-69.818182 31.325091-69.818182 69.818182l0 325.818182c0 38.493091 31.325091 69.818182 69.818182 69.818182l465.454545 0c38.493091 0 69.818182-31.325091 69.818182-69.818182L814.545455 488.727273zM744.727273 837.818182 279.272727 837.818182c-12.823273 0-23.272727-10.426182-23.272727-23.272727L256 488.727273c0-12.823273 10.449455-23.272727 23.272727-23.272727l465.454545 0c12.823273 0 23.272727 10.449455 23.272727 23.272727l0 325.818182C768 827.392 757.550545 837.818182 744.727273 837.818182zM512 558.545455c-25.716364 0-46.545455 20.852364-46.545455 46.545455 0 17.175273 9.425455 32.023273 23.272727 40.075636L488.727273 721.454545c0 12.869818 10.426182 23.272727 23.272727 23.272727s23.272727-10.402909 23.272727-23.272727l0-76.264727c13.847273-8.075636 23.272727-22.900364 23.272727-40.075636C558.545455 579.397818 537.693091 558.545455 512 558.545455z" p-id="756"></path>
</g>
</svg>