<?xml version="1.0" standalone="no"?><!DOCTYPE svg PUBLIC "-//W3C//DTD SVG 1.1//EN" "http://www.w3.org/Graphics/SVG/1.1/DTD/svg11.dtd"><svg t="1496852794087" class="icon" style="" viewBox="0 0 1024 1024" version="1.1" xmlns="http://www.w3.org/2000/svg" p-id="4257" xmlns:xlink="http://www.w3.org/1999/xlink" width="48" height="48"><defs><style type="text/css"></style></defs><path d="M893.543 244.364c33.487 0 60.25 8.533 80.291 25.47 20.04 17.067 29.996 42.796 29.996 77.318v456.791c0 14.87-2.715 28.833-8.274 42.02-5.43 13.189-13.059 24.696-22.627 34.522-9.567 9.826-20.816 17.713-33.745 23.402-12.93 5.818-26.505 8.662-40.727 8.662H180.752c-14.223 0-27.67-2.715-40.34-8.274-12.67-5.43-23.531-12.8-32.97-21.85-9.309-9.051-16.678-19.653-22.238-31.678-5.43-12.024-8.275-24.953-8.275-38.658V345.47c0-29.608 9.05-53.915 27.152-72.792 18.1-18.877 43.572-28.445 76.541-28.445h712.921v0.13M821.14 552.21" fill="#FFB166" p-id="4258"></path><path d="M335.774 531.523h441.664c24.307 0 44.219-15.256 44.219-34.133s-19.782-34.133-44.219-34.133H443.087l54.95-42.538c17.842-13.705 17.842-36.073 0-49.778-17.843-13.705-46.675-13.705-64.518 0l-128.905 99.556c-10.86 8.404-15.127 20.04-12.67 30.901 2.585 16.937 21.203 30.125 43.83 30.125z m447.483 68.525c-4.655-0.646-9.31-0.775-13.964-0.258h-433.52c-24.306 0-44.217 15.127-44.217 33.875 0 18.747 19.781 33.874 44.218 33.874h332.8l-54.691 42.538c-17.713 13.834-17.713 36.331 0 50.165 17.842 13.835 46.675 13.835 64.517 0l128.905-100.33c4.267-3.363 7.499-7.112 9.697-11.25 2.974-4.525 4.655-9.696 4.655-15.127 0-17.066-16.809-31.289-38.4-33.487z" fill="#FFFFFF" p-id="4259"></path></svg>