<?xml version="1.0" standalone="no"?><!DOCTYPE svg PUBLIC "-//W3C//DTD SVG 1.1//EN" "http://www.w3.org/Graphics/SVG/1.1/DTD/svg11.dtd"><svg t="1488506534133" class="icon" style="" viewBox="0 0 1024 1024" version="1.1" xmlns="http://www.w3.org/2000/svg" p-id="3022" xmlns:xlink="http://www.w3.org/1999/xlink" width="200" height="200"><defs><style type="text/css"></style></defs><path d="M395.477551 453.989006c0 0-8.442382-0.731681-16.569406 7.395342-7.62968 7.62968-5.742515 17.769762-5.742515 17.769762l105.259915 93.3274 22.310674-25.165105L395.477551 453.989006z" p-id="3023" fill="#8a8a8a"></path><path d="M686.535936 337.761349 500.734973 547.315159l0.007479 0.007479-22.310674 25.165105-0.007479-0.007479-0.059831 0.06357 25.165105 22.311921 208.168975-234.784978c0 0-0.712984-9.098029-8.075918-16.462209C697.772917 337.760102 686.535936 337.761349 686.535936 337.761349z" p-id="3024" fill="#8a8a8a"></path><path d="M929.486578 3.159817 96.581325 3.159817C44.89869 3.159817 2.614483 45.445269 2.614483 97.126659l0 832.905253c0 51.682636 42.285453 93.968088 93.966842 93.968088l832.907746 0c51.682636 0 93.965595-42.285453 93.965595-93.968088L1023.454667 97.126659C1023.454667 45.444023 981.169214 3.159817 929.486578 3.159817zM793.613213 531.636983l65.284182 0c2.319692 0 4.53094-0.484879 6.541506-1.348687-8.467312 181.551726-154.144211 327.231119-335.695938 335.695938 0.863808-2.010566 1.348687-4.221814 1.348687-6.539013l0-65.284182c0-9.167831-7.503786-16.669124-16.669124-16.669124l-2.778395 0c-9.166585 0-16.667877 7.503786-16.667877 16.669124L494.976254 859.445221c0 2.319692 0.484879 4.528447 1.348687 6.539013C314.771968 857.520662 169.093822 711.841269 160.627756 530.288296c2.011812 0.863808 4.223061 1.348687 6.54026 1.348687l65.284182 0c9.167831 0 16.667877-7.501293 16.667877-16.669124l0-2.778395c0-9.167831-7.501293-16.666631-16.667877-16.666631l-65.282935 0c-2.319692 0-4.529694 0.482386-6.54026 1.348687 8.466065-181.552973 154.144211-327.231119 335.697184-335.697184-0.863808 2.011812-1.348687 4.223061-1.348687 6.54026l0 65.284182c0 9.167831 7.501293 16.667877 16.667877 16.667877l2.779642 0c9.166585 0 16.666631-7.501293 16.666631-16.667877l0-65.284182c0-2.319692-0.484879-4.529694-1.348687-6.54026 181.551726 8.466065 327.231119 154.144211 335.695938 335.697184-2.010566-0.866301-4.221814-1.348687-6.539013-1.348687L793.615706 495.522833c-9.167831 0-16.666631 7.4988-16.666631 16.666631l0 2.778395C776.946582 524.136937 784.447874 531.636983 793.613213 531.636983z" p-id="3025" fill="#8a8a8a"></path><path d="M489.579012 543.084619l0.011218 0 0 33.629923-0.011218 0 0-33.629923Z" p-id="3026" fill="#8a8a8a"></path></svg>