<?xml version="1.0" standalone="no"?><!DOCTYPE svg PUBLIC "-//W3C//DTD SVG 1.1//EN" "http://www.w3.org/Graphics/SVG/1.1/DTD/svg11.dtd"><svg t="1495457215785" class="icon" style="" viewBox="0 0 1024 1024" version="1.1" xmlns="http://www.w3.org/2000/svg" p-id="4377" xmlns:xlink="http://www.w3.org/1999/xlink" width="48" height="48"><defs><style type="text/css"></style></defs><path d="M514.959538 11.83815C236.763006 11.83815 11.83815 236.763006 11.83815 514.959538s224.924855 503.121387 503.121388 503.121387 503.121387-224.924855 503.121387-503.121387S793.156069 11.83815 514.959538 11.83815z m290.034682 544.554914c0 5.919075 0 5.919075 0 0-35.514451 165.734104-195.32948 272.277457-355.144509 230.84393-130.219653-29.595376-219.00578-142.057803-230.843931-272.277456 0-23.676301 11.83815-29.595376 29.595376-17.757226 11.83815 5.919075 94.705202 53.271676 106.543353 59.190752s5.919075 23.676301-5.919075 23.6763-47.352601 5.919075-47.352602 5.919075c23.676301 65.109827 82.867052 118.381503 153.895954 136.138729 118.381503 29.595376 248.601156-53.271676 278.196532-177.572255v-5.919075c0-5.919075 0-11.83815 11.83815-11.83815 11.83815 5.919075 35.514451 11.83815 47.352601 11.83815 17.757225 5.919075 17.757225 5.919075 11.838151 17.757226z m-366.982659-47.352602c-11.83815 0-23.676301-11.83815-23.676301-23.6763s11.83815-23.676301 23.676301-23.676301h47.352601l-53.271676-53.271676c-5.919075-11.83815-5.919075-23.676301 0-35.514451 11.83815-5.919075 23.676301-5.919075 35.51445 0l47.352602 47.352601 47.352601-47.352601c11.83815-5.919075 23.676301-5.919075 35.514451 0 5.919075 11.83815 5.919075 23.676301 0 35.514451l-53.271677 47.352601h47.352601c11.83815 0 23.676301 11.83815 23.676301 23.676301s-11.83815 23.676301-23.676301 23.6763h-47.352601v23.676301h47.352601c11.83815 0 23.676301 11.83815 23.676301 23.6763s-11.83815 23.676301-23.676301 23.676301h-47.352601v29.595376c0 11.83815-11.83815 29.595376-29.595375 29.595375-11.83815 0-29.595376-11.83815-29.595376-29.595375v-29.595376h-47.352601c-11.83815 0-23.676301-11.83815-23.676301-23.676301s11.83815-23.676301 23.676301-23.6763h47.352601v-23.676301l-47.352601 5.919075z m355.144508-17.757225c-23.676301 0-118.381503-53.271676-124.300578-59.190751s-5.919075-11.83815 5.919075-17.757226c5.919075 0 47.352601-5.919075 47.352602-5.919075-23.676301-71.028902-82.867052-130.219653-159.815029-147.976879-124.300578-29.595376-248.601156 53.271676-272.277457 183.49133 0 0-5.919075 11.83815-11.83815 11.83815s-29.595376-5.919075-35.514451-11.83815c-5.919075-5.919075-11.83815-5.919075-5.919075-17.757226 29.595376-165.734104 195.32948-272.277457 349.225433-236.763005 130.219653 29.595376 219.00578 142.057803 230.843931 272.277456-5.919075 23.676301-11.83815 29.595376-23.676301 29.595376z" fill="#E54040" p-id="4378" class="selected"></path></svg>