<?xml version="1.0" standalone="no"?><!DOCTYPE svg PUBLIC "-//W3C//DTD SVG 1.1//EN" "http://www.w3.org/Graphics/SVG/1.1/DTD/svg11.dtd"><svg t="1495512122656" class="icon" style="" viewBox="0 0 1024 1024" version="1.1" xmlns="http://www.w3.org/2000/svg" p-id="4177" xmlns:xlink="http://www.w3.org/1999/xlink" width="32" height="32"><defs><style type="text/css"></style></defs><path d="M1019.00699 440.212006A516.474995 516.474995 0 0 1 1023.99999 512.000005c0 282.769997-229.229998 511.999995-511.999995 511.999995S0 794.770002 0 512.000005 229.229998 0.00001 511.999995 0.00001a517.019995 517.019995 0 0 1 64.028999 3.965 511.527995 511.527995 0 0 1 25.597 3.853l-13.24 70.788999C563.575994 74.264009 538.051995 72.000009 511.999995 72.000009 268.994997 72.000009 71.999999 268.995007 71.999999 512.000005s196.994998 439.999996 439.999996 439.999996 439.999996-196.994998 439.999996-439.999996c0-22.141-1.635-43.899-4.792-65.161999l71.798999-6.626z" fill="#ff0000" p-id="4178"></path><path d="M592.999994 43.00001m-35.999999 0a36 36 0 1 0 71.999999 0 36 36 0 1 0-71.999999 0Z" fill="#ff0000" p-id="4179"></path><path d="M982.99999 442.000006m-35.999999 0a36 36 0 1 0 71.999999 0 36 36 0 1 0-71.999999 0Z" fill="#ff0000" p-id="4180"></path><path d="M383.999996 440.000006h255.999998c19.882 0 36 16.118 35.999999 35.999999s-16.118 36-35.999999 36H383.999996c-19.882 0-36-16.118-35.999999-36s16.118-36 35.999999-35.999999z" fill="#ff0000" p-id="4181"></path><path d="M547.749995 500.250005v285.499997c0 19.882-16.118 36-36 36s-36-16.118-36-36v-285.499997c0-19.882 16.118-36 36-36s36 16.118 36 36z" fill="#ff0000" p-id="4182"></path><path d="M383.999996 576.000004h255.999998c19.882 0 36 16.118 35.999999 36s-16.118 36-35.999999 36H383.999996c-19.882 0-36-16.118-35.999999-36s16.118-36 35.999999-36zM419.799996 290.896007l116.007999 120.129999c13.811 14.302 13.414 37.093-0.889 50.903999-14.302 13.811-37.093 13.414-50.904-0.889L368.007996 340.912007c-13.812-14.302-13.414-37.093 0.888-50.904 14.302-13.812 37.093-13.414 50.904 0.888z" fill="#ff0000" p-id="4183"></path><path d="M603.607994 290.927007L487.599995 411.057006c-13.811 14.302-13.414 37.093 0.889 50.903999 14.302 13.811 37.093 13.414 50.904-0.889L655.399994 340.943007c13.811-14.302 13.414-37.093-0.889-50.904-14.301-13.811-37.092-13.414-50.903 0.888z" fill="#ff0000" p-id="4184"></path><path d="M988.05199 204.000008c0 19.882-16.118 36-35.999999 36h-224.999998c-19.882 0-36-16.118-36-36s16.118-36 36-36h224.999998c19.882 0 36 16.118 35.999999 36z" fill="#ff0000" p-id="4185"></path><path d="M861.861992 332.698007c0 19.875 11.396 24.596 25.452999 10.539l113.142999-113.143999c14.055-14.055 14.057-36.848 0-50.905L887.313991 66.045009c-14.055-14.055-25.453-9.339-25.452999 10.539v256.113998z" fill="#ff0000" p-id="4186"></path></svg>