<?xml version="1.0" standalone="no"?><!DOCTYPE svg PUBLIC "-//W3C//DTD SVG 1.1//EN" "http://www.w3.org/Graphics/SVG/1.1/DTD/svg11.dtd"><svg t="1489054318889" class="icon" style="" viewBox="0 0 1662 1024" version="1.1" xmlns="http://www.w3.org/2000/svg" p-id="4085" xmlns:xlink="http://www.w3.org/1999/xlink" width="77.90625" height="48"><defs><style type="text/css"></style></defs><path d="M1468.377358 1024 193.207547 1024C86.499019 1024 0 937.500981 0 830.792453L0 193.207547C0 86.499019 86.499019 0 193.207547 0L1468.377358 0C1575.085887 0 1661.584906 86.499019 1661.584906 193.207547L1661.584906 830.792453C1661.584906 937.500981 1575.085887 1024 1468.377358 1024ZM550.641509 309.132075C550.641509 223.772981 481.434566 154.566038 396.075472 154.566038 310.716377 154.566038 241.509434 223.772981 241.509434 309.132075L241.509434 328.45283C241.509434 413.811925 310.716377 483.018868 396.075472 483.018868 481.434566 483.018868 550.641509 413.811925 550.641509 328.45283L550.641509 309.132075ZM695.54717 695.54717C695.54717 588.838642 609.048151 502.339623 502.339623 502.339623L328.45283 502.339623C221.744302 502.339623 135.245283 588.838642 135.245283 695.54717L135.245283 850.113208 695.54717 850.113208 695.54717 695.54717ZM1526.339623 212.528302 1004.679245 212.528302 1004.679245 328.45283 1526.339623 328.45283 1526.339623 212.528302ZM1526.339623 483.018868 908.075472 483.018868 908.075472 598.943396 1526.339623 598.943396 1526.339623 483.018868ZM1526.339623 734.188679 811.471698 734.188679 811.471698 850.113208 1526.339623 850.113208 1526.339623 734.188679Z" p-id="4086" fill="#8e8e93"></path></svg>