<?xml version="1.0" standalone="no"?><!DOCTYPE svg PUBLIC "-//W3C//DTD SVG 1.1//EN" "http://www.w3.org/Graphics/SVG/1.1/DTD/svg11.dtd"><svg t="1488956554523" class="icon" style="" viewBox="0 0 1024 1024" version="1.1" xmlns="http://www.w3.org/2000/svg" p-id="2561" xmlns:xlink="http://www.w3.org/1999/xlink" width="48" height="48"><defs><style type="text/css"></style></defs><path d="M764.902903 734.83392c-5.734247 0-11.474633-2.335038-15.592158-6.968276-7.695801-8.627975-6.930417-21.842119 1.656628-29.533828C830.642094 627.157165 876.319607 525.132797 876.319607 418.345238c0-207.066276-168.483921-375.509268-375.553267-375.509267-207.026369 0-375.466291 168.442992-375.466291 375.509267 0 19.250248 1.399795 38.160779 4.16357 56.220996 1.782487 11.430634-6.07601 22.093836-17.46469 23.836418-11.77342 1.616722-22.096906-6.07601-23.839487-17.464691-3.102469-20.184467-4.672122-41.217202-4.672122-62.592723 0-230.098425 187.180595-417.321996 417.27902-417.321996 230.139355 0 417.367019 187.224595 417.367019 417.321996 0 118.683767-50.779396 232.096816-139.294926 311.176011-3.991666 3.569067-8.966668 5.312671-13.93553 5.312671z" p-id="2562" fill="#d81e06"></path><path d="M437.919853 1024c-62.041195 0-122.678503-23.075125-125.226375-24.052321C212.960149 977.472173 77.067501 768.530295 33.342333 690.003651c-29.61671-52.562907-24.006275-83.883314-14.021482-100.921313 20.228467-34.632641 79.887555-35.523885 122.040001-3.016517 17.294833 12.027184 55.029943 46.404015 98.75204 86.217329 50.526656 46.064298 113.459095 103.38528 137.042772 117.410855 39.218811 23.283867 89.489656 40.535723 207.491944 49.119698 35.398026 2.633824 54.348464-0.804268 60.807166-3.229351l-60.128757-75.21134c-24.305062-34.293948-20.56716-58.004507-13.300096-72.025989 16.020897-31.063574 67.64856-39.474621 112.308971-19.121319 13.512931 5.181696 37.524322 14.23534 65.781144 24.814636 61.95422 23.28489 146.811661 55.156825 193.386557 74.702789 72.664492 30.468047 71.427392 80.865774 69.816809 93.783179V1023.787166H447.734789c-2.634848 0.126882-6.202892 0.212834-9.814936 0.212834zM73.285599 602.977961c-5.097791 0-14.19134 0.93422-17.889336 7.224087-4.673145 7.989472-3.356233 27.834223 14.448174 59.364395 61.531621 110.56639 181.277513 273.695687 255.002084 290.477876 3.399209 1.111241 58.978633 22.143975 113.073332 22.143975l8.879693-0.212834h524.707128l0.505481-125.440233c0.338693-2.464989 3.185352-29.151135-44.700317-49.206673-45.811558-19.250248-130.288352-50.949255-191.89774-74.108286-28.430773-10.709248-52.609976-19.758799-67.266891-25.453139-27.282696-12.321877-55.412635-7.224087-58.981703-0.212835-1.955415 3.781902-0.638503 13.25712 9.519219 27.621389l60.467449 74.829671c7.85952 9.562194 14.531056 26.643169 6.842418 42.916807-12.113136 25.751926-49.24965 28.725466-76.149653 28.725466-8.285189 0-17.676502-0.339716-28.213846-1.104078-126.203571-9.179502-181.530254-28.599608-225.806949-54.899991-27.239719-16.190755-86.559092-70.199502-143.881096-122.422693-40.878509-37.227582-79.461887-72.408681-95.355901-83.500622-13.936553-10.708225-29.831591-16.742282-43.301546-16.742282z" p-id="2563" fill="#d81e06"></path><path d="M499.151665 320.101749a20.922225 20.922225 0 0 1-15.211513-6.542608L366.063723 188.54253c-7.905566-8.411047-7.523897-21.671238 0.848267-29.573734 8.41514-7.945472 21.631331-7.479897 29.576804 0.851337l117.876429 125.013541c7.902496 8.41514 7.519804 21.671238-0.85236 29.573734-4.036689 3.825901-9.218385 5.69434-14.361198 5.694341z" p-id="2564" fill="#d81e06"></path><path d="M512.578643 320.101749a20.885388 20.885388 0 0 1-14.360175-5.693318c-8.372164-7.902496-8.754857-21.159617-0.851337-29.573734l117.875406-125.01354c7.945472-8.331235 21.11971-8.79681 29.572711-0.851338 8.372164 7.902496 8.754857 21.162686 0.851337 29.573734L527.791179 313.560164a20.924271 20.924271 0 0 1-15.212536 6.541585z" p-id="2565" fill="#d81e06"></path><path d="M633.941258 353.843146H377.748121c-11.557516 0-20.906876-9.34936-20.906876-20.906876s9.34936-20.906876 20.906876-20.906876h256.193137c11.557516 0 20.906876 9.34936 20.906876 20.906876s-9.34936 20.906876-20.906876 20.906876zM633.941258 466.195093H377.748121c-11.557516 0-20.906876-9.34936-20.906876-20.906876 0-11.560586 9.34936-20.906876 20.906876-20.906876h256.193137c11.557516 0 20.906876 9.345267 20.906876 20.906876-0.001023 11.557516-9.34936 20.906876-20.906876 20.906876z" p-id="2566" fill="#d81e06"></path><path d="M505.781248 602.934985c-11.557516 0-20.906876-9.34936-20.906876-20.906876V354.013004c0-11.557516 9.34936-20.906876 20.906876-20.906876s20.906876 9.34936 20.906876 20.906876v228.016128c-0.001023 11.557516-9.34936 20.905853-20.906876 20.905853z" p-id="2567" fill="#d81e06"></path></svg>