<?xml version="1.0" standalone="no"?><!DOCTYPE svg PUBLIC "-//W3C//DTD SVG 1.1//EN" "http://www.w3.org/Graphics/SVG/1.1/DTD/svg11.dtd"><svg t="1495245742027" class="icon" style="" viewBox="0 0 1024 1024" version="1.1" xmlns="http://www.w3.org/2000/svg" p-id="3940" xmlns:xlink="http://www.w3.org/1999/xlink" width="48" height="48"><defs><style type="text/css"></style></defs><path d="M928 808.18C928 682 855.51 574.05 753 530c49.64-35.78 82.36-96.73 82.36-165.95 0-94.5-61-173.59-142.78-194.16a3.29 3.29 0 0 0-2.16 0.2 27.78 27.78 0 0 0-2.78-0.31C670.17 169.83 656 185.11 656 204c0 17 11.59 31 26.71 33.6a52.6 52.6 0 0 0 6.36 2.14c47.38 17.34 81.48 65.66 81.48 122.62 0 63.52-42.42 116.31-98.37 127.35-0.08 0-0.15 0.16-0.23 0.21-18.61 1.27-33.39 17.79-33.39 38.18 0 20.7 15.22 37.46 34.23 38.28 0.13 0.07 0.25 0.29 0.39 0.3C785.69 579 865.45 682.38 865.45 808.19c0 18.62 14 33.72 31.27 33.72 16.85 0 30.49-14.41 31.14-32.41a3.79 3.79 0 0 0 0.14-0.5v-0.2-0.62" fill="#FF9900" p-id="3941"></path><path d="M553.25 535.65c59.28-42.84 98.33-115.68 98.33-198.42 0-131.84-99.1-238.73-221.36-238.73S208.86 205.39 208.86 337.23c0 82.75 39.06 155.58 98.33 198.42C184.65 588.39 98 717.46 98 868.44c0 8.5 0.45 16.87 1.05 25.2h0.06c0 18.38 13.81 33.26 30.85 33.26s30.85-14.89 30.85-33.26c0-1-0.2-2-0.28-3-0.59-7.33-1.1-14.66-1.1-22.17 0-161.29 121.24-292 270.8-292S701 707.14 701 868.44c0 7.78-0.51 15.44-1.15 23 0 0.4-0.11 0.76-0.11 1.15v1.01h0.1c0.51 17.89 14 32.26 30.75 32.26s30.24-14.36 30.75-32.26h0.07c0.58-8.33 1-16.7 1-25.18 0-151-86.63-280.06-209.19-332.8m-123-26.94c-87.82 0-159-76.78-159-171.48s71.19-171.48 159-171.48 159 76.77 159 171.48-71.22 171.51-159 171.51" fill="#666666" p-id="3942"></path></svg>