<?xml version="1.0" standalone="no"?><!DOCTYPE svg PUBLIC "-//W3C//DTD SVG 1.1//EN" "http://www.w3.org/Graphics/SVG/1.1/DTD/svg11.dtd"><svg t="1490067083647" class="icon" style="" viewBox="0 0 1024 1024" version="1.1" xmlns="http://www.w3.org/2000/svg" p-id="2867" xmlns:xlink="http://www.w3.org/1999/xlink" width="48" height="48"><defs><style type="text/css"></style></defs><path d="M656.268778 343.473749 544.405037 192.696744l154.747433 0.067538 0.067538-0.178055 11.93482-0.002047L656.268778 343.473749zM374.915855 343.473749l-61.897745-150.887522 11.06501 0 0.005117 0.016373 155.704225 0.067538L374.915855 343.473749zM136.514163 380.156206l0-0.002047 0 0L136.514163 380.156206zM352.802208 389.534807l149.70765 434.143795-0.660032 1.986237L144.206356 389.534807 352.802208 389.534807zM151.517879 361.400027 280.017508 200.775746l72.760141 160.624281L151.517879 361.400027zM518.561439 774.939551 383.427716 389.534807l259.189134 0L518.561439 774.939551zM395.512962 361.400027l116.139114-168.80766 122.478496 168.80766L395.512962 361.400027zM676.865885 361.400027l70.679759-168.611186 5.178953 0.002047 137.523143 168.609139L676.865885 361.400027zM535.139 823.527153 674.033373 389.534807l223.817532 0L539.539216 826.481438l-3.199878 0L535.139 823.527153z" p-id="2868" fill="#d81e06"></path></svg>