<?xml version="1.0" standalone="no"?><!DOCTYPE svg PUBLIC "-//W3C//DTD SVG 1.1//EN" "http://www.w3.org/Graphics/SVG/1.1/DTD/svg11.dtd"><svg t="1488964408710" class="icon" style="" viewBox="0 0 1024 1024" version="1.1" xmlns="http://www.w3.org/2000/svg" p-id="3286" xmlns:xlink="http://www.w3.org/1999/xlink" width="48" height="48"><defs><style type="text/css"></style></defs><path d="M898.017882 1024 119.687529 1024C53.579294 1024 0 970.390588 0 904.252235L0 125.44C0 59.301647 54.362353 0 120.470588 0L632.470588 0 632.470588 60.235294 120.470588 60.235294C87.431529 60.235294 59.843765 92.370824 59.843765 125.44L59.843765 904.252235C59.843765 937.321412 86.618353 964.126118 119.687529 964.126118L898.017882 964.126118C931.056941 964.126118 963.764706 936.598588 963.764706 903.529412L963.764706 391.529412 1024 391.529412 1024 903.529412C1024 969.667765 964.126118 1024 898.017882 1024ZM480.105412 733.816471C471.371294 742.580706 460.408471 746.947765 449.114353 749.146353L187.090824 878.742588C157.605647 892.446118 133.993412 866.002824 144.865882 836.487529L274.371765 574.283294C276.570353 562.989176 280.967529 552.026353 289.701647 543.262118L755.169882 77.492706C778.541176 54.121412 816.429176 54.121412 839.800471 77.492706L945.573647 183.356235C968.944941 206.727529 968.944941 244.675765 945.573647 268.047059L480.105412 733.816471ZM202.179765 800.256C195.312941 814.08 208.534588 828.235294 223.292235 821.398588L385.084235 723.395765 300.122353 638.373647 202.179765 800.256ZM332.016941 585.607529 669.786353 247.627294 776.312471 352.737882 437.790118 691.471059C398.125176 651.776 343.250824 596.871529 332.016941 585.607529ZM882.115765 204.528941 818.627765 141.010824C806.942118 129.325176 787.998118 129.325176 776.312471 141.010824L714.360471 203.023059 818.627765 310.392471 882.115765 246.874353C893.801412 235.188706 893.801412 216.214588 882.115765 204.528941Z" p-id="3287" fill="#ffffff"></path></svg>