<?xml version="1.0" standalone="no"?><!DOCTYPE svg PUBLIC "-//W3C//DTD SVG 1.1//EN" "http://www.w3.org/Graphics/SVG/1.1/DTD/svg11.dtd"><svg t="1488362680367" class="icon" style="" viewBox="0 0 1024 1024" version="1.1" xmlns="http://www.w3.org/2000/svg" p-id="5832" xmlns:xlink="http://www.w3.org/1999/xlink" width="200" height="200"><defs><style type="text/css"></style></defs><path d="M0 113.493333C0 50.801778 50.801778 0 113.493333 0h797.013334C973.198222 0 1024 50.801778 1024 113.493333v797.013334A113.493333 113.493333 0 0 1 910.506667 1024H113.493333A113.493333 113.493333 0 0 1 0 910.506667V113.493333zM512 512a199.68 199.68 0 0 0 199.111111-199.111111A199.68 199.68 0 0 0 512 113.777778a199.68 199.68 0 0 0-199.111111 199.111111A199.68 199.68 0 0 0 512 512z m0 99.555556c-134.428444 0-398.222222 64.682667-398.222222 199.111111V910.222222h796.444444v-99.555555c0-134.428444-263.793778-199.111111-398.222222-199.111111z" fill="#8CA0B3" p-id="5833"></path></svg>