<?xml version="1.0" standalone="no"?><!DOCTYPE svg PUBLIC "-//W3C//DTD SVG 1.1//EN" "http://www.w3.org/Graphics/SVG/1.1/DTD/svg11.dtd"><svg t="1490436824316" class="icon" style="" viewBox="0 0 1024 1024" version="1.1" xmlns="http://www.w3.org/2000/svg" p-id="3422" xmlns:xlink="http://www.w3.org/1999/xlink" width="48" height="48"><defs><style type="text/css"></style></defs><path d="M70.146 515.94a441.86 441.86 0 1 0 883.72 0 441.86 441.86 0 1 0-883.72 0z" fill="#F0F8FF" p-id="3423"></path><path d="M510.003 530.514c30.666 16.805 77.622-110.351-2.761-103.163-80.383 7.187 2.761 103.163 2.761 103.163z" fill="#FFE1CC" p-id="3424"></path><path d="M490.422 828.503a21.584 21.584 0 1 0 43.168 0 21.584 21.584 0 1 0-43.168 0z" fill="#5A7C88" p-id="3425"></path><path d="M333.355 530.43c-30.205 17.62-80.547-108.235 0-103.2 80.546 5.033 0 103.2 0 103.2z m352.623 0c30.205 17.62 80.547-108.235 0-103.2-80.546 5.033 0 103.2 0 103.2z" fill="#FFE1CC" p-id="3426"></path><path d="M704.796 464.808c0 106.135-86.039 221.011-192.175 221.011S320.447 570.943 320.447 464.808s86.04-192.175 192.175-192.175 192.174 86.04 192.174 192.175z m-15.569 343.256c0 46.765-79.069 84.675-176.606 84.675s-176.606-37.91-176.606-84.675 79.069-61.316 176.606-61.316 176.606 14.551 176.606 61.316z" fill="#FFE1CC" p-id="3427"></path><path d="M760.625 881.264c-28.293 19.314-58.951 35.432-91.493 47.739a376.604 376.604 0 0 1-25.928 8.978 435.843 435.843 0 0 1-86.237 17.563 435.996 435.996 0 0 1-41.651 2.234c-0.613 0.044-1.226 0.044-1.84 0.044h-2.715c-0.569 0-1.139 0-1.708-0.044a426.932 426.932 0 0 1-41.213-2.146c-28.249-2.803-55.666-8.234-82.076-16.161a389.187 389.187 0 0 1-23.562-7.708 283.44 283.44 0 0 1-13.227-5.037c-1.358-0.526-2.76-1.051-4.117-1.664-9.942-4.03-19.753-8.453-29.301-13.271a67.286 67.286 0 0 1-3.985-1.971c-16.38-8.321-32.191-17.694-47.301-27.943 14.103-32.891 32.936-59.608 55.448-80.806 9.022-8.541 18.702-16.161 28.862-22.906 0.044-0.044 0.044 0 0.044 0 3.679-2.453 7.401-4.818 11.212-7.051a208.006 208.006 0 0 1 8.672-4.818 211.786 211.786 0 0 1 12.263-6.044c0.92-0.438 1.839-0.832 2.759-1.226a212.886 212.886 0 0 1 14.935-6.044c1.708-0.657 3.372-1.27 5.081-1.839 0.044 0 0.044 0 0.088-0.044h0.044a206.782 206.782 0 0 1 6.788-2.234c2.234-0.744 4.467-1.402 6.701-2.058-0.044 0.35 0 0.788 0.131 1.27 0.175 0.964 0.57 2.146 1.139 3.548 0.219 0.438 0.395 0.876 0.614 1.358 1.051 2.321 2.54 5.081 4.424 8.19 3.285 5.562 7.839 12.22 13.27 19.227 0.044 0.044 0.088 0.132 0.132 0.175 1.489 1.883 3.066 3.81 4.642 5.781l0.044 0.088c0.088 0.044 0.132 0.132 0.175 0.175a283.805 283.805 0 0 0 6 6.964s0.044 0 0.044 0.044a309.269 309.269 0 0 0 7.446 7.84c1.139 1.095 2.278 2.234 3.416 3.329a128.92 128.92 0 0 0 3.679 3.416 70.076 70.076 0 0 0 3.329 2.978 230.6 230.6 0 0 0 5.256 4.336c1.401 1.095 2.803 2.146 4.204 3.197 5.037 3.679 10.205 6.789 15.373 9.241 6.657 3.241 13.402 5.212 19.971 5.562 0.701 0.088 1.446 0.088 2.146 0.088 0.701 0 1.446 0 2.146-0.088 6.176-0.307 12.526-2.146 18.833-4.993 5.562-2.54 11.125-5.912 16.555-9.811a120.248 120.248 0 0 0 5.475-4.161c2.497-2.058 4.949-4.161 7.358-6.394a81.968 81.968 0 0 0 3.548-3.329c1.664-1.577 3.329-3.197 4.905-4.861a166.245 166.245 0 0 0 6.657-7.095 147.987 147.987 0 0 0 3.547-4.073l0.044-0.044a309.407 309.407 0 0 0 3.548-4.248 232.286 232.286 0 0 0 12.22-16.512c3.985-5.956 6.964-11.168 8.759-15.022 0.219-0.482 0.394-0.92 0.613-1.358 0.92-2.19 1.358-3.81 1.27-4.818 4.774 1.402 9.504 2.891 14.146 4.511 1.358 0.482 2.76 0.964 4.073 1.489 4.38 1.577 8.716 3.285 12.964 5.168a203.741 203.741 0 0 1 17.081 8.146c0.044 0 0.044 0.044 0.088 0.044 3.066 1.533 6 3.197 8.979 4.949 40.466 23.694 73.49 59.608 95.213 110.15z" fill="#FFFDF8" p-id="3428"></path><path d="M450.189 594.917v179.569h122.632V594.917H450.189z" fill="#FFE1CC" p-id="3429"></path><path d="M608.342 767.916l-0.219 0.701c0.044 0.044 0 0.044 0 0.044l-9.285 33.943-3.153 11.563-0.745 2.759-1.183 4.292v0.044l-7.358 26.892-0.044 0.044-10.642 38.98-18.745 68.367a435.996 435.996 0 0 1-41.651 2.234c-0.613 0.044-1.226 0.044-1.84 0.044h-2.715c-0.569 0-1.139 0-1.708-0.044a426.932 426.932 0 0 1-41.213-2.146c-5.475-21.548-11.474-45.155-17.344-68.28-3.592-13.884-7.095-27.636-10.424-40.6-1.445-5.518-2.803-10.862-4.161-16.074-0.087-0.306-0.175-0.569-0.219-0.876v-0.044c-1.051-3.942-2.015-7.752-2.978-11.475-0.393-1.445-0.744-2.847-1.095-4.248l-0.044-0.044c-1.839-7.139-3.591-13.708-5.168-19.709a1894.293 1894.293 0 0 0-6.57-24.439v-0.044a426.396 426.396 0 0 1-1.051-3.679v-0.044c-1.007-3.416-1.62-5.343-1.795-5.475l6.482 0.569 26.716 2.453 55.711 5.037h2.935l4.424-0.044h0.832l58.732-0.438 24.615-0.175 9.066-0.087h1.837z" fill="#79C4FF" p-id="3430"></path><path d="M509.053 957.777a426.932 426.932 0 0 1-41.213-2.146c-28.249-2.803-55.666-8.234-82.076-16.161a389.187 389.187 0 0 1-23.562-7.708 307.35 307.35 0 0 0-10.905-9.285c-1.139-0.92-2.321-1.883-3.504-2.803-0.526-0.438-1.051-0.876-1.621-1.27-0.437-0.394-0.92-0.744-1.401-1.095a337.558 337.558 0 0 0-21.899-15.723c-1.138-0.701-2.233-1.445-3.372-2.146-1.27-0.832-2.584-1.62-3.855-2.409-0.481-0.307-0.92-0.569-1.401-0.876 0.745-0.569 1.489-1.139 2.234-1.664 0.306-0.219 0.613-0.482 0.876-0.701 2.146-1.577 4.248-3.197 6.307-4.774 2.278-1.796 4.555-3.504 6.745-5.299l0.044-0.044c12.613-9.942 24.045-19.621 34.512-29.125a400.662 400.662 0 0 0 9.767-9.154c4.03-3.81 7.84-7.577 11.563-11.344v-0.044a593.709 593.709 0 0 0 9.109-9.679c1.095-1.183 2.409-2.453 4.862-2.278 1.489 0.088 3.197 0.744 4.818 1.402 12.219 4.993 23.475 13.183 33.33 21.811 0.569 0.482 1.139 1.008 1.664 1.489a227.16 227.16 0 0 1 38.41 44.41 238.296 238.296 0 0 1 30.568 66.616z" fill="#E5EAF9" p-id="3431"></path><path d="M482.644 891.512c12.175 24.658 23.343 47.389 28.117 66.309-0.569 0-1.139 0-1.708-0.044a426.932 426.932 0 0 1-41.213-2.146c-28.249-2.803-55.666-8.234-82.076-16.161-8.453-8.54-17.124-16.555-26.015-23.913a49.13 49.13 0 0 0-3.329-2.803c-1.139-0.964-2.321-1.883-3.46-2.803-1.27-1.051-2.54-2.015-3.81-2.978-7.227-5.65-14.54-10.906-21.942-15.68a53.769 53.769 0 0 0-3.548-2.278 228.866 228.866 0 0 0-6.088-3.81c6.219-4.555 12.175-9.022 17.913-13.533h0.044c8.935-6.964 17.3-13.796 25.096-20.497a568.023 568.023 0 0 0 13.534-12.044c3.46-3.241 6.788-6.394 9.942-9.504 4.38-4.292 8.54-8.54 12.438-12.745 0.701-0.744 2.716-3.504 4.73-5.3 1.051-0.92 2.102-1.577 2.934-1.533 1.446 0.131 4.424-0.613 6.045 0 1.839 0.745 3.591 0.394 5.343-0.745 0.044 0 0.088-0.044 0.132-0.088 1.27-0.832 2.496-2.146 3.723-3.679 2.409-3.066 4.73-7.226 6.964-11.256 2.321-4.161 4.555-8.234 6.789-10.906 0.569-0.701 1.095-1.27 1.664-1.752a6.573 6.573 0 0 1 1.884-1.226c1.357-0.569 2.715-0.394 4.073 0.788 0.263 1.796 0.569 3.548 0.92 5.343v0.087c0.263 1.226 0.482 2.496 0.788 3.767v0.044c1.665 8.102 3.942 16.205 6.613 24.351 0.395 1.182 0.789 2.365 1.226 3.591v0.044c0.132 0.394 0.263 0.788 0.438 1.183 0.35 1.095 0.788 2.234 1.183 3.329v0.044c8.45 23.477 19.969 46.733 30.656 68.544z" fill="#F3F7FF" p-id="3432"></path><path d="M464.464 800.799c-22.558 14.595-1.709 7.897-20.505 26.898-13.873-24.934-89.058-11.101-110.983-27.068 89.693-95.961 62.596-21.823 131.488 0.17z" fill="#E5EAF9" p-id="3433"></path><path d="M462.665 796.256c-22.558 14.595-1.709 7.896-20.505 26.898-13.873-24.934-89.058-11.101-110.983-27.068 89.694-95.962 62.597-21.824 131.488 0.17z" fill="#F3F7FF" p-id="3434"></path><path d="M708.769 900.534c-13.445 8.19-26.716 17.694-39.637 28.468a376.604 376.604 0 0 1-25.928 8.978 435.843 435.843 0 0 1-86.237 17.563 435.996 435.996 0 0 1-41.651 2.234c6.964-23.213 17.781-45.943 32.235-66.703 10.468-15.022 22.818-28.994 37.052-41.432 0.569-0.526 1.139-0.963 1.752-1.445l0.044-0.044c9.416-8.103 20.103-15.636 31.534-20.322 1.621-0.657 3.329-1.314 4.818-1.402 2.496-0.175 3.766 1.095 4.861 2.278 8.497 9.285 18.045 18.833 28.731 28.599C669.044 869 683.322 881 699.352 893.395c3.066 2.366 6.219 4.731 9.417 7.139z" fill="#E5EAF9" p-id="3435"></path><path d="M705.484 889.585a232.382 232.382 0 0 0-6.131 3.81c-19.315 12.263-38.235 27.242-56.148 44.586a435.843 435.843 0 0 1-86.237 17.563 435.996 435.996 0 0 1-41.651 2.234c-0.613 0.044-1.226 0.044-1.84 0.044 5.562-19.183 16.993-41.87 28.994-66.309 9.679-19.621 19.753-40.381 27.505-61.36 0.788-2.058 1.533-4.117 2.278-6.175v-0.044c0.569-1.62 1.095-3.241 1.62-4.818 2.672-8.146 4.95-16.249 6.613-24.307v-0.044c0.307-1.27 0.526-2.54 0.789-3.81 0.132-0.745 0.263-1.445 0.35-2.146l0.044-0.044c0.175-1.051 0.351-2.146 0.526-3.197 1.007-0.876 2.015-1.182 3.022-1.051 0.963 0.088 1.971 0.613 2.934 1.533 0.57 0.438 1.095 1.007 1.665 1.708 2.934 3.548 5.913 9.46 9.022 14.847 0.832 1.445 1.664 2.847 2.584 4.161 1.883 2.978 3.855 5.431 5.913 6.832 1.751 1.226 3.547 1.664 5.475 0.876 1.576-0.657 4.555 0.087 6 0 0.832-0.088 1.883 0.569 2.935 1.489 2.015 1.752 4.029 4.555 4.773 5.3 9.898 10.643 21.286 21.592 34.25 32.892 13.225 11.473 28.072 23.255 44.715 35.43z" fill="#F3F7FF" p-id="3436"></path><path d="M558.564 805.179c22.558 14.595 1.709 7.896 20.505 26.898 13.873-24.934 89.058-11.101 110.983-27.068-89.694-95.961-62.597-21.823-131.488 0.17z" fill="#E5EAF9" p-id="3437"></path><path d="M560.362 800.636c22.558 14.595 1.708 7.897 20.505 26.898 13.873-24.934 89.058-11.101 110.983-27.068-89.693-95.962-62.596-21.824-131.488 0.17z" fill="#F3F7FF" p-id="3438"></path><path d="M457.55 734.549l-69.894 23.496 51.106 76.297 75.906-65.364z" fill="#8FA5B0" p-id="3439"></path><path d="M450.953 726.309l-72.056 25.436 52.687 82.597 81.098-68.961z" fill="#64C4F4" p-id="3440"></path><path d="M574.29 726.309l69.784 25.436-66.893 86.247-66.893-72.611z" fill="#64C4F4" p-id="3441"></path><path d="M504.165 780.326a8.444 8.444 0 1 0 16.888 0 8.444 8.444 0 1 0-16.888 0z m0 61.316a8.444 8.444 0 1 0 16.888 0 8.444 8.444 0 1 0-16.888 0z m0 70.075a8.444 8.444 0 1 0 16.888 0 8.444 8.444 0 1 0-16.888 0z" fill="#FFFDF8" p-id="3442"></path><path d="M545.111 260.598c8.144-30.114 38.263-47.629 68.023-45.35 29.76 2.279 58.221 21.381 79.377 46.083 6.565 7.666 12.599 15.963 17.049 25.145 14.687 30.307 12.613 134.637-0.026 163.429L545.111 260.598z" fill="#332115" p-id="3443"></path><path d="M546.675 202.411c17.056 13.53 32.86 37.699 24.398 59.464-20.168 29.408-58.244 27.861-89.9 36.562-24.734 6.798-47.495 21.196-72.194 28.164-29.003 8.183-60.889 5.381-86.904-11.498s-45.181-48.684-46.442-83.032c12.041 6.575 24.616 13.291 37.941 13.107 18.151-0.25 34.035-13.068 49.792-23.444 16.398-10.798 33.822-19.354 51.199-27.884 13.385-6.57 26.898-13.186 41.192-16.319 31.417-6.886 64.584 3.99 90.918 24.88z" fill="#332115" p-id="3444"></path><path d="M715.595 413.605c-0.342-10.138-1.33-19.418-1.387-23.995-0.418-33.738-10.953-63.239-31.068-90.352-34.938-47.091-87.691-75.812-146.757-75.812h-46.819c-52.75 0-102.99 24.281-138.338 62.972-21.498 23.531-36.078 52.743-42.587 83.905-3.338 15.981-4.564 32.383-3.845 48.687 0.567 12.852-2.02 37.426 14.21 28.178 10.066-5.736 20.087-26.538 28.669-35.384 10.947-11.283 23.004-21.524 36.193-30.102 26.348-17.138 56.694-27.042 88.113-28.47 50.509-2.295 98.428 16.255 141.798 40.569 24.732 13.865 47.552 21.462 64.939 44.608 4.35 5.79 8.741 12.233 15.556 14.682 19.886 7.145 22.045-18.081 21.323-39.486z" fill="#332115" p-id="3445"></path><path d="M306.847 404.379c1.891-5.037 5.664-9.144 9.749-12.646 13.98-11.983 32.767-18.188 51.134-16.889-18.31 18.999-36.082 41.461-37.25 67.821-0.766 17.275 5.67 35.472-1.116 51.377-12.692-22.162-20.774-46.95-23.585-72.334-0.644-5.808-0.986-11.859 1.068-17.329z m405.317 0c-1.891-5.037-5.664-9.144-9.749-12.646-13.98-11.983-32.767-18.188-51.134-16.889 18.31 18.999 36.082 41.461 37.25 67.821 0.766 17.275-5.669 35.472 1.116 51.377 12.692-22.162 20.774-46.95 23.585-72.334 0.644-5.808 0.986-11.859-1.068-17.329z" fill="#332115" p-id="3446"></path><path d="M571.993 673.271v17.562c-35.068 19.139-79.108 16.03-123.147 0.569v-19.096c4.893 0.131 1.737 0.263 1.999 0.35 19.359 8.453 39.748 13.183 61.296 13.183 21.023 0.001 41.91-4.51 59.852-12.568z" fill="#F4C7A8" p-id="3447"></path></svg>