<?xml version="1.0" standalone="no"?><!DOCTYPE svg PUBLIC "-//W3C//DTD SVG 1.1//EN" "http://www.w3.org/Graphics/SVG/1.1/DTD/svg11.dtd"><svg t="1489053945327" class="icon" style="" viewBox="0 0 1024 1024" version="1.1" xmlns="http://www.w3.org/2000/svg" p-id="3501" xmlns:xlink="http://www.w3.org/1999/xlink" width="48" height="48"><defs><style type="text/css"></style></defs><path d="M625.328603 520.341992c-11.550057 21.014616-26.099425 39.727817-42.930765 56.199976 6.65456 8.019651 16.696264 13.127995 27.936259 13.127995 20.044522 0 36.286438-16.241916 36.286438-36.286438C646.620535 538.689872 637.885594 526.048971 625.328603 520.341992zM467.32808 316.462558c-25.930579 0-46.957475 21.011546-46.957475 46.957475 0 25.946952 21.026896 46.957475 46.957475 46.957475 25.928532 0 46.957475-21.010523 46.957475-46.957475C514.284531 337.473081 493.256612 316.462558 467.32808 316.462558zM878.839411 0 136.624169 0c-75.439156 0-136.603191 61.164035-136.603191 136.603191L0.020978 881.652991c0 75.470879 61.164035 142.306076 136.603191 142.306076L878.839411 1023.959068c75.453483 0 142.305053-66.835198 142.305053-142.306076L1021.144464 136.602168C1021.145487 61.164035 954.293917 0 878.839411 0zM795.728528 760.223385c-56.361659 19.443841-28.197202 46.491871-3.551896 80.4421-68.284199-20.277836-114.00859-33.484625-165.768441-54.896284-88.481194-7.242961-167.177534-60.718897-200.542432-127.306454-51.074236 12.151761-104.57166 14.572904-153.48979 7.77815-35.701107 25.547863-78.55717 55.363935-135.65254 82.97683 41.654702-34.317597 70.502727-74.572416 80.975243-118.393457C128.869554 604.943832 70.122569 512.630357 70.122569 415.446967c0-136.837528 130.717134-242.057965 292.000424-242.057965 148.718113 0 280.099373 94.666056 291.656593 216.441541 6.113231-0.345877 12.264325-0.531096 18.451234-0.531096 139.921773 0 253.364475 84.310198 253.364475 200.970174C925.596318 689.687912 857.36226 742.54884 795.728528 760.223385zM753.341139 512.830925c-18.859533 0-34.149774 15.273868-34.149774 34.150798 0 18.875906 15.290241 34.149774 34.149774 34.149774 18.860557 0 34.151821-15.273868 34.151821-34.149774C787.49296 528.10377 772.200672 512.830925 753.341139 512.830925zM266.69048 316.462558c-25.929556 0-46.957475 21.011546-46.957475 46.957475 0 25.946952 21.027919 46.957475 46.957475 46.957475s46.957475-21.010523 46.957475-46.957475C313.647955 337.473081 292.621059 316.462558 266.69048 316.462558z" p-id="3502" fill="#8e8e93"></path></svg>