<?xml version="1.0" standalone="no"?><!DOCTYPE svg PUBLIC "-//W3C//DTD SVG 1.1//EN" "http://www.w3.org/Graphics/SVG/1.1/DTD/svg11.dtd"><svg t="1489026532907" class="icon" style="" viewBox="0 0 1024 1024" version="1.1" xmlns="http://www.w3.org/2000/svg" p-id="5035" xmlns:xlink="http://www.w3.org/1999/xlink" width="128" height="128"><defs><style type="text/css"></style></defs><path d="M944.64 749.472c-0.128-0.256-0.256-0.512-0.384-0.736s-0.224-0.48-0.352-0.736c-0.064-0.16-0.16-0.288-0.256-0.448-0.192-0.352-0.384-0.672-0.576-1.024-0.032-0.064-0.096-0.128-0.128-0.224-0.256-0.416-0.48-0.8-0.768-1.184-0.032-0.032-0.032-0.064-0.064-0.096-0.288-0.416-0.576-0.864-0.896-1.28-0.032-0.032-0.032-0.032-0.064-0.064-0.32-0.416-0.64-0.832-0.96-1.216 0 0-0.032-0.032-0.032-0.032-0.032-0.064-0.096-0.096-0.128-0.16-0.288-0.352-0.576-0.672-0.864-0.992-0.128-0.16-0.288-0.32-0.448-0.448-0.224-0.224-0.416-0.448-0.64-0.672-0.256-0.256-0.512-0.512-0.768-0.736-0.128-0.096-0.224-0.224-0.352-0.32-0.384-0.352-0.736-0.672-1.12-0.992-0.032 0-0.032-0.032-0.064-0.032l-0.032-0.032c-0.128-0.096-0.256-0.192-0.384-0.288l-137.728-113.408c-13.856-11.424-34.336-9.44-45.76 4.416s-9.44 34.336 4.416 45.76l68.224 56.192-210.752 0c-17.952 0-32.512 14.56-32.512 32.512s14.56 32.512 32.512 32.512l211.104 0-68.64 56.8c-13.824 11.456-15.744 31.936-4.32 45.76 6.432 7.776 15.712 11.776 25.056 11.776 7.296 0 14.656-2.432 20.704-7.456l138.144-114.336c0.032-0.032 0.096-0.064 0.128-0.128 0.288-0.224 0.544-0.48 0.8-0.704 0.192-0.16 0.384-0.352 0.576-0.544s0.384-0.384 0.576-0.576c0.256-0.256 0.544-0.544 0.8-0.8 0.128-0.128 0.224-0.256 0.352-0.384 0.352-0.384 0.704-0.8 1.024-1.184 0.032-0.032 0.064-0.064 0.064-0.096s0.032-0.032 0.032-0.032c1.056-1.28 1.984-2.592 2.784-3.968 0-0.032 0.032-0.032 0.032-0.064 0.224-0.384 0.448-0.8 0.672-1.184 0.032-0.096 0.096-0.16 0.128-0.256 0.16-0.32 0.32-0.64 0.48-0.96 0.096-0.16 0.16-0.352 0.256-0.512 0.096-0.224 0.192-0.448 0.288-0.672 0.128-0.288 0.256-0.544 0.352-0.832 0.032-0.096 0.064-0.192 0.128-0.32 1.312-3.328 2.048-6.848 2.208-10.336 0.224-5.024-0.704-10.144-2.816-14.848-0.064-0.128-0.096-0.224-0.16-0.352z" p-id="5036" fill="#D6D6D6"></path><path d="M671.584 555.872l0-5.056c0-16.704-13.536-30.24-30.24-30.24l-102.336 0 0-39.872 62.336 0c16.704 0 30.24-13.536 30.24-30.24l0-5.056c0-16.704-13.536-30.24-30.24-30.24l-17.024 0 70.656-70.656c11.808-11.808 11.808-30.976 0-42.784l-3.552-3.552c-11.808-11.808-30.976-11.808-42.784 0l-101.344 101.344-93.44-101.408c-11.808-11.808-30.976-11.808-42.784 0l-3.552 3.552c-11.808 11.808-11.808 30.976 0 42.784l65.152 70.688-21.472 0c-16.704 0-30.24 13.536-30.24 30.24l0 5.056c0 16.704 13.536 30.24 30.24 30.24l62.336 0 0 39.872-102.336 0c-16.704 0-30.24 13.536-30.24 30.24l0 5.056c0 16.704 13.536 30.24 30.24 30.24l102.336 0 0 118.336c0 16.704 13.536 30.24 30.24 30.24l0 0 5.056 0c16.704 0 30.24-13.536 30.24-30.24l0-118.336 102.336 0c16.704 0 30.24-13.536 30.24-30.24z" p-id="5037" fill="#D6D6D6"></path><path d="M818.496 199.776c-86.048-86.048-191.104-129.696-312.224-129.696s-226.176 43.648-312.224 129.696c-86.048 86.048-129.696 191.104-129.696 312.224s43.648 226.176 129.696 312.224c85.952 85.952 190.816 129.568 311.744 129.696 0 0 0.032 0 0.032 0 17.92 0 32.48-14.528 32.512-32.48s-14.528-32.512-32.48-32.544c-51.712-0.064-100.192-9.344-144.128-27.616s-84.928-46.24-121.696-83.04c-36.864-36.832-64.8-77.856-83.104-121.888s-27.552-92.576-27.552-144.384 9.28-100.384 27.552-144.384c18.304-44.032 46.24-85.056 83.104-121.888s77.856-64.8 121.888-83.104c44-18.272 92.576-27.552 144.384-27.552s100.352 9.28 144.384 27.552c44.032 18.304 85.056 46.24 121.888 83.104s64.8 77.856 83.104 121.888c18.272 44 27.552 92.576 27.552 144.416l0 0.448c0 17.952 14.56 32.48 32.512 32.48s32.512-14.56 32.512-32.512l0-0.448c0-121.12-43.648-226.176-129.696-312.224z" p-id="5038" fill="#D6D6D6"></path></svg>